<?xml version="1.0" encoding="utf-8"?>
<!-- Generator: Adobe Illustrator 15.1.0, SVG Export Plug-In . SVG Version: 6.00 Build 0)  -->
<!DOCTYPE svg PUBLIC "-//W3C//DTD SVG 1.1//EN" "http://www.w3.org/Graphics/SVG/1.1/DTD/svg11.dtd">
<svg version="1.1" id="Layer_1" xmlns="http://www.w3.org/2000/svg" xmlns:xlink="http://www.w3.org/1999/xlink" x="0px" y="0px"
	 width="533.025px" height="482.217px" viewBox="0 0 533.025 482.217" enable-background="new 0 0 533.025 482.217"
	 xml:space="preserve">
<g>
	<g>
		<path d="M80.292,197.589c-20.812-0.751-42.911,3.257-56.896,20.042c-6.09,7.309-10.859,17.375-10.513,27.042
			c0.267,7.432,4.522,13.684,10.014,18.366c12.845,10.955,32.474,14.43,48.842,14.699c18.451,0.303,38.901-6.521,50.237-21.729
			c11.395-15.287,8.56-36.525-3.02-50.745c-11.824-14.518-31.877-20.379-49.661-14.976c-1.18,0.359-0.824,1.732,0.367,1.37
			c23.93-7.272,49.691,7.386,56.333,31.367c3.167,11.434,0.695,23.875-6.353,33.331c-6.632,8.896-17.117,14.249-27.559,17.258
			c-18.723,5.395-40.744,2.573-58.227-5.721c-8.091-3.84-15.59-9.943-18.247-18.783c-3.212-10.689,3-22.697,9.411-30.875
			c12.808-16.334,35.112-19.904,54.613-19.2C80.592,199.067,81.598,197.636,80.292,197.589L80.292,197.589z"/>
	</g>
</g>
<g>
	<g>
		<path d="M278.921,258.354c-20.813-0.752-42.912,3.258-56.897,20.043c-6.09,7.309-10.859,17.373-10.513,27.041
			c0.267,7.432,4.522,13.684,10.014,18.367c12.845,10.955,32.474,14.43,48.842,14.697c18.45,0.303,38.9-6.521,50.237-21.729
			c11.396-15.287,8.56-36.526-3.021-50.746c-11.823-14.518-31.877-20.379-49.66-14.976c-1.18,0.359-0.824,1.731,0.367,1.37
			c23.93-7.271,49.691,7.385,56.333,31.367c3.167,11.434,0.696,23.875-6.353,33.33c-6.632,8.898-17.117,14.25-27.559,17.258
			c-18.723,5.395-40.744,2.574-58.227-5.721c-8.091-3.838-15.59-9.943-18.247-18.783c-3.212-10.689,2.999-22.697,9.411-30.875
			c12.808-16.334,35.112-19.904,54.613-19.2C279.222,259.833,280.226,258.401,278.921,258.354L278.921,258.354z"/>
	</g>
</g>
<g>
	<g>
		<path fill="#ED1C24" d="M53.762,224.512c-0.417-0.417-0.851-0.901-1.386-1.169c-0.562-0.281-1.153-0.319-1.771-0.319
			c-1.935-0.001-1.935,2.999,0,3c0.186,0,0.371,0,0.557,0.011c-0.255-0.042-0.307-0.048-0.153-0.02
			c0.129,0.024,0.313,0.149-0.078-0.046c0.048,0.026,0.095,0.056,0.14,0.087c-0.354-0.237-0.059-0.035,0.015,0.032
			c0.192,0.175,0.373,0.362,0.557,0.546c0.578,0.578,1.543,0.578,2.121,0C54.34,226.055,54.34,225.089,53.762,224.512
			L53.762,224.512z"/>
	</g>
</g>
<g>
	<g>
		<path fill="#ED1C24" d="M73.075,222.427c-0.063-1.424-1.098-2.527-2.548-2.549c-0.818-0.012-1.5,0.691-1.5,1.5
			c0,0.827,0.683,1.488,1.5,1.5c0.266,0.004-0.474-0.117-0.043,0.009c0.141,0.051,0.089,0.029-0.156-0.065
			c0.129,0.08,0.093,0.049-0.106-0.093c0.105,0.112,0.082,0.081-0.069-0.092c-0.024-0.057-0.048-0.114-0.073-0.171
			c0.037,0.158,0.036,0.145-0.005-0.04c0.036,0.816,0.655,1.5,1.5,1.5C72.365,223.927,73.111,223.245,73.075,222.427L73.075,222.427
			z"/>
	</g>
</g>
<g>
	<g>
		<path fill="#ED1C24" d="M99.884,234.558c-0.349,0-0.699,0-1.048,0c-1.935,0-1.935,3,0,3c0.349,0,0.699,0,1.048,0
			C101.819,237.558,101.819,234.558,99.884,234.558L99.884,234.558z"/>
	</g>
</g>
<g>
	<g>
		<path fill="#ED1C24" d="M77.866,253.286c1.935,0,1.935-3,0-3S75.932,253.286,77.866,253.286L77.866,253.286z"/>
	</g>
</g>
<g>
	<g>
		<path fill="#009444" d="M48.507,237.704c-0.349,0-0.699,0-1.048,0c-1.935,0-1.935,3,0,3c0.349,0,0.699,0,1.048,0
			C50.442,240.704,50.442,237.704,48.507,237.704L48.507,237.704z"/>
	</g>
</g>
<g>
	<g>
		<path fill="#009444" d="M58.993,256.43c1.935,0,1.935-3,0-3S57.058,256.43,58.993,256.43L58.993,256.43z"/>
	</g>
</g>
<g>
	<g>
		<path fill="#009444" d="M76.817,236.509c1.935,0,1.935-3,0-3S74.883,236.509,76.817,236.509L76.817,236.509z"/>
	</g>
</g>
<g>
	<g>
		<path fill="#009444" d="M92.545,219.733c1.935,0,1.935-3,0-3S90.61,219.733,92.545,219.733L92.545,219.733z"/>
	</g>
</g>
<g>
	<g>
		<path d="M-59.475,64.43c0.69,0,2.069-1.048,0.765-1.048C-59.4,63.382-60.779,64.43-59.475,64.43L-59.475,64.43z"/>
	</g>
</g>
<g>
	<g>
		<path fill="#009444" d="M248.717,286.346c1.935,0,1.935-3,0-3S246.782,286.346,248.717,286.346L248.717,286.346z"/>
	</g>
</g>
<g>
	<g>
		<path fill="#009444" d="M247.669,310.462c1.934,0,1.934-3,0-3C245.734,307.462,245.734,310.462,247.669,310.462L247.669,310.462z"
			/>
	</g>
</g>
<g>
	<g>
		<path fill="#009444" d="M273.284,308.962c0-0.35,0-0.699,0-1.049c0-1.935-3-1.935-3,0c0,0.35,0,0.699,0,1.049
			C270.284,310.897,273.284,310.897,273.284,308.962L273.284,308.962z"/>
	</g>
</g>
<g>
	<g>
		<path fill="#009444" d="M295.899,279.006c1.936,0,1.936-3,0-3C293.966,276.006,293.966,279.006,295.899,279.006L295.899,279.006z"
			/>
	</g>
</g>
<g>
	<g>
		<path fill="#ED1C24" d="M253.96,294.733c1.934,0,1.934-3,0-3C252.024,291.733,252.024,294.733,253.96,294.733L253.96,294.733z"/>
	</g>
</g>
<g>
	<g>
		<path fill="#ED1C24" d="M269.687,294.733c1.936,0,1.936-3,0-3C267.753,291.733,267.753,294.733,269.687,294.733L269.687,294.733z"
			/>
	</g>
</g>
<g>
	<g>
		<path fill="#ED1C24" d="M308.495,281.688c-0.496-0.491-1.166-1.229-1.941-1.158c-1.328,0.12-1.875,1.453-1.196,2.534
			c0.669,1.065,1.812,2.166,3.124,2.233c0.818,0.041,1.5-0.715,1.5-1.5c0-0.85-0.684-1.459-1.5-1.5
			c0.305,0.053,0.379,0.062,0.227,0.028c-0.142-0.046-0.084-0.019,0.172,0.081c-0.092-0.04-0.178-0.096-0.262-0.15
			c-0.207-0.135,0.286,0.244-0.025-0.021c-0.109-0.094-0.213-0.196-0.314-0.299c-0.107-0.109-0.56-0.681-0.225-0.235
			c-0.049-0.063-0.092-0.129-0.135-0.197c-0.016-0.025-0.031-0.053-0.045-0.08c0.107,0.2,0.176,0.385,0.164,0.625
			c-0.068,0.252-0.137,0.504-0.205,0.756c0.002-0.004,0.004-0.008,0.006-0.012c-0.18,0.18-0.359,0.359-0.539,0.538
			c0.004-0.003,0.008-0.005,0.012-0.007c-0.253,0.068-0.506,0.137-0.758,0.205c-0.12-0.018-0.24-0.034-0.361-0.051
			c-0.305-0.145-0.392-0.178-0.26-0.1c0.205,0.125-0.324-0.265-0.088-0.068c0.186,0.155,0.357,0.328,0.529,0.498
			c0.58,0.574,1.541,0.58,2.121,0C309.071,283.233,309.075,282.262,308.495,281.688L308.495,281.688z"/>
	</g>
</g>
<g>
	<g>
		<path fill="#ED1C24" d="M299.046,295.782c1.935,0,1.935-3,0-3S297.111,295.782,299.046,295.782L299.046,295.782z"/>
	</g>
</g>
<g>
	<g>
		<path d="M268.166,376.682c-20.812-0.752-42.911,3.256-56.896,20.041c-6.09,7.309-10.859,17.373-10.513,27.041
			c0.266,7.432,4.522,13.684,10.014,18.365c12.844,10.955,32.474,14.432,48.841,14.699c18.45,0.301,38.901-6.521,50.237-21.73
			c11.396-15.287,8.562-36.525-3.02-50.744c-11.824-14.518-31.878-20.379-49.661-14.977c-1.18,0.359-0.824,1.732,0.367,1.369
			c23.929-7.27,49.692,7.387,56.334,31.367c3.167,11.434,0.694,23.875-6.353,33.33c-6.633,8.898-17.117,14.25-27.559,17.26
			c-18.725,5.395-40.744,2.574-58.228-5.721c-8.091-3.84-15.59-9.943-18.246-18.783c-3.212-10.689,2.999-22.697,9.411-30.875
			c12.808-16.334,35.113-19.902,54.613-19.199C268.466,378.161,269.472,376.729,268.166,376.682L268.166,376.682z"/>
	</g>
</g>
<g>
	<g>
		<path fill="#009444" d="M274.392,390.459c1.934,0,1.934-3,0-3C272.456,387.459,272.456,390.459,274.392,390.459L274.392,390.459z"
			/>
	</g>
</g>
<g>
	<g>
		<path fill="#009444" d="M296.755,413.545c1.934,0,1.934-3,0-3C294.819,410.545,294.819,413.545,296.755,413.545L296.755,413.545z"
			/>
	</g>
</g>
<g>
	<g>
		<path fill="#009444" d="M262.529,427.288c0-0.35,0-0.699,0-1.049c0-1.934-3-1.934-3,0c0,0.35,0,0.699,0,1.049
			C259.529,429.223,262.529,429.223,262.529,427.288L262.529,427.288z"/>
	</g>
</g>
<g>
	<g>
		<path fill="#009444" d="M285.146,397.333c1.934,0,1.934-3,0-3C283.21,394.333,283.21,397.333,285.146,397.333L285.146,397.333z"/>
	</g>
</g>
<g>
	<g>
		<path fill="#ED1C24" d="M243.205,413.059c1.935,0,1.935-3,0-3S241.27,413.059,243.205,413.059L243.205,413.059z"/>
	</g>
</g>
<g>
	<g>
		<path fill="#ED1C24" d="M258.933,418.768c1.936,0,1.936-3,0-3C256.999,415.768,256.999,418.768,258.933,418.768L258.933,418.768z"
			/>
	</g>
</g>
<g>
	<g>
		<path fill="#ED1C24" d="M297.739,400.016c-0.496-0.492-1.166-1.229-1.94-1.16c-1.329,0.121-1.874,1.455-1.196,2.535
			c0.668,1.066,1.812,2.168,3.125,2.234c0.817,0.041,1.5-0.715,1.5-1.5c0-0.85-0.684-1.459-1.5-1.5
			c0.303,0.053,0.379,0.062,0.225,0.027c-0.141-0.045-0.083-0.018,0.172,0.082c-0.092-0.041-0.176-0.096-0.26-0.15
			c-0.207-0.135,0.285,0.244-0.026-0.021c-0.11-0.094-0.213-0.195-0.314-0.299c-0.107-0.109-0.56-0.68-0.226-0.234
			c-0.047-0.064-0.092-0.131-0.133-0.197c-0.018-0.027-0.032-0.053-0.047-0.082c0.109,0.201,0.176,0.385,0.164,0.625
			c-0.068,0.254-0.137,0.506-0.205,0.758c0.002-0.004,0.004-0.008,0.006-0.012c-0.18,0.178-0.358,0.357-0.537,0.537
			c0.003-0.002,0.006-0.004,0.01-0.006c-0.252,0.066-0.504,0.135-0.757,0.203c-0.12-0.016-0.241-0.033-0.361-0.049
			c-0.306-0.146-0.392-0.18-0.261-0.102c0.205,0.127-0.323-0.264-0.088-0.066c0.186,0.154,0.357,0.328,0.529,0.498
			c0.58,0.574,1.541,0.58,2.121,0C298.315,401.561,298.319,400.59,297.739,400.016L297.739,400.016z"/>
	</g>
</g>
<g>
	<g>
		<path fill="#ED1C24" d="M266.272,439.739c1.934,0,1.934-3,0-3C264.337,436.739,264.337,439.739,266.272,439.739L266.272,439.739z"
			/>
	</g>
</g>
<g>
	<g>
		<path d="M276.823,151.583c-20.812-0.751-42.911,3.257-56.896,20.042c-6.09,7.309-10.859,17.375-10.513,27.041
			c0.266,7.432,4.522,13.684,10.014,18.367c12.844,10.955,32.474,14.431,48.841,14.699c18.451,0.301,38.902-6.522,50.238-21.73
			c11.395-15.287,8.561-36.525-3.02-50.745c-11.824-14.518-31.879-20.378-49.662-14.975c-1.18,0.359-0.824,1.732,0.367,1.37
			c23.93-7.271,49.692,7.384,56.334,31.366c3.168,11.434,0.695,23.875-6.352,33.331c-6.633,8.898-17.117,14.25-27.56,17.258
			c-18.724,5.395-40.743,2.575-58.227-5.721c-8.091-3.839-15.59-9.943-18.247-18.783c-3.212-10.689,2.999-22.697,9.411-30.875
			c12.808-16.335,35.112-19.905,54.612-19.2C277.124,153.062,278.13,151.631,276.823,151.583L276.823,151.583z"/>
	</g>
</g>
<g>
	<g>
		<path fill="#009444" d="M246.62,179.575c1.935,0,1.935-3,0-3S244.686,179.575,246.62,179.575L246.62,179.575z"/>
	</g>
</g>
<g>
	<g>
		<path fill="#009444" d="M245.572,203.691c1.935,0,1.935-3,0-3C243.637,200.691,243.637,203.691,245.572,203.691L245.572,203.691z"
			/>
	</g>
</g>
<g>
	<g>
		<path fill="#009444" d="M271.187,202.191c0-0.35,0-0.699,0-1.049c0-1.935-3-1.935-3,0c0,0.35,0,0.699,0,1.049
			C268.187,204.126,271.187,204.126,271.187,202.191L271.187,202.191z"/>
	</g>
</g>
<g>
	<g>
		<path fill="#009444" d="M239.012,198.43c1.935,0,1.935-3,0-3S237.077,198.43,239.012,198.43L239.012,198.43z"/>
	</g>
</g>
<g>
	<g>
		<path fill="#ED1C24" d="M251.862,187.962c1.935,0,1.935-3,0-3S249.928,187.962,251.862,187.962L251.862,187.962z"/>
	</g>
</g>
<g>
	<g>
		<path fill="#ED1C24" d="M258.933,202.643c1.936,0,1.936-3,0-3C256.999,199.643,256.999,202.643,258.933,202.643L258.933,202.643z"
			/>
	</g>
</g>
<g>
	<g>
		<path fill="#ED1C24" d="M306.397,174.917c-0.496-0.491-1.166-1.229-1.941-1.159c-1.329,0.121-1.875,1.455-1.196,2.535
			c0.669,1.065,1.812,2.166,3.126,2.233c0.816,0.042,1.5-0.714,1.5-1.5c0-0.849-0.684-1.458-1.5-1.5
			c0.303,0.053,0.378,0.062,0.225,0.029c-0.141-0.046-0.084-0.019,0.172,0.081c-0.092-0.04-0.177-0.096-0.26-0.15
			c-0.208-0.135,0.285,0.244-0.027-0.021c-0.109-0.093-0.213-0.196-0.314-0.299c-0.107-0.109-0.559-0.681-0.225-0.235
			c-0.048-0.063-0.092-0.13-0.135-0.197c-0.016-0.026-0.031-0.053-0.045-0.081c0.108,0.201,0.176,0.385,0.164,0.625
			c-0.068,0.252-0.137,0.505-0.205,0.757c0.002-0.004,0.004-0.008,0.006-0.013c-0.18,0.18-0.359,0.359-0.539,0.538
			c0.004-0.002,0.008-0.004,0.012-0.007c-0.253,0.068-0.505,0.137-0.758,0.205c-0.12-0.017-0.24-0.034-0.361-0.05
			c-0.305-0.145-0.392-0.178-0.26-0.1c0.205,0.126-0.324-0.264-0.088-0.067c0.186,0.155,0.357,0.328,0.529,0.498
			c0.58,0.575,1.541,0.58,2.121,0C306.974,176.462,306.978,175.492,306.397,174.917L306.397,174.917z"/>
	</g>
</g>
<g>
	<g>
		<path fill="#ED1C24" d="M296.948,189.011c1.936,0,1.936-3,0-3C295.015,186.011,295.015,189.011,296.948,189.011L296.948,189.011z"
			/>
	</g>
</g>
<g>
	<g>
		<path d="M261.095,49.713c-20.812-0.752-42.911,3.257-56.896,20.042c-6.09,7.31-10.859,17.375-10.513,27.042
			c0.267,7.432,4.522,13.684,10.014,18.367c12.845,10.955,32.474,14.43,48.841,14.698c18.451,0.303,38.902-6.521,50.238-21.729
			c11.395-15.287,8.561-36.526-3.02-50.745c-11.824-14.518-31.879-20.379-49.662-14.976c-1.18,0.359-0.824,1.732,0.367,1.37
			c23.93-7.272,49.692,7.385,56.334,31.366c3.168,11.435,0.695,23.876-6.352,33.331c-6.633,8.898-17.117,14.25-27.56,17.258
			c-18.723,5.395-40.744,2.574-58.227-5.721c-8.091-3.838-15.59-9.943-18.247-18.783c-3.212-10.689,3-22.697,9.411-30.875
			c12.808-16.335,35.112-19.904,54.612-19.2C261.396,51.192,262.401,49.76,261.095,49.713L261.095,49.713z"/>
	</g>
</g>
<g>
	<g>
		<path fill="#009444" d="M230.892,77.704c1.935,0,1.935-3,0-3S228.957,77.704,230.892,77.704L230.892,77.704z"/>
	</g>
</g>
<g>
	<g>
		<path fill="#009444" d="M229.843,101.82c1.935,0,1.935-3,0-3S227.909,101.82,229.843,101.82L229.843,101.82z"/>
	</g>
</g>
<g>
	<g>
		<path fill="#009444" d="M255.459,100.32c0-0.35,0-0.699,0-1.048c0-1.935-3-1.935-3,0c0,0.35,0,0.699,0,1.048
			C252.459,102.254,255.459,102.254,255.459,100.32L255.459,100.32z"/>
	</g>
</g>
<g>
	<g>
		<path fill="#009444" d="M222.378,100.771c1.935,0,1.935-3,0-3S220.443,100.771,222.378,100.771L222.378,100.771z"/>
	</g>
</g>
<g>
	<g>
		<path fill="#ED1C24" d="M236.134,86.092c1.935,0,1.935-3,0-3S234.2,86.092,236.134,86.092L236.134,86.092z"/>
	</g>
</g>
<g>
	<g>
		<path fill="#ED1C24" d="M241.251,101.82c1.935,0,1.935-3,0-3S239.316,101.82,241.251,101.82L241.251,101.82z"/>
	</g>
</g>
<g>
	<g>
		<path fill="#ED1C24" d="M290.669,73.046c-0.496-0.491-1.166-1.229-1.941-1.159c-1.328,0.121-1.875,1.454-1.195,2.535
			c0.668,1.065,1.812,2.166,3.125,2.233c0.816,0.042,1.5-0.714,1.5-1.5c0-0.849-0.684-1.458-1.5-1.5
			c0.303,0.053,0.378,0.062,0.225,0.029c-0.141-0.046-0.084-0.019,0.172,0.081c-0.092-0.04-0.177-0.096-0.26-0.15
			c-0.208-0.135,0.285,0.244-0.027-0.021c-0.109-0.093-0.213-0.196-0.314-0.298c-0.107-0.109-0.559-0.681-0.225-0.235
			c-0.048-0.063-0.092-0.13-0.135-0.197c-0.016-0.026-0.031-0.053-0.045-0.081c0.108,0.201,0.176,0.385,0.164,0.625
			c-0.068,0.252-0.137,0.505-0.205,0.757c0.002-0.004,0.004-0.008,0.006-0.013c-0.18,0.18-0.359,0.359-0.538,0.538
			c0.003-0.002,0.007-0.004,0.011-0.007c-0.252,0.068-0.505,0.137-0.758,0.205c-0.12-0.017-0.24-0.034-0.361-0.05
			c-0.305-0.145-0.392-0.178-0.26-0.1c0.205,0.126-0.324-0.264-0.088-0.067c0.186,0.155,0.357,0.328,0.529,0.498
			c0.58,0.575,1.541,0.58,2.121,0C291.245,74.592,291.249,73.622,290.669,73.046L290.669,73.046z"/>
	</g>
</g>
<g>
	<g>
		<path fill="#ED1C24" d="M246.641,114.8c1.935,0,1.935-3,0-3S244.706,114.8,246.641,114.8L246.641,114.8z"/>
	</g>
</g>
<path fill="none" stroke="#C49A6C" stroke-miterlimit="10" d="M249.151,77.137c-12.513-5.508-26.167-15.356-32.534,4.195
	c-4.588,14.087-0.647,27.308,10.46,35.653c12.19,9.158,26.757,12.188,37.513-2.364c9.898-13.393-1.729-31.827-14.392-36.435"/>
<path fill="none" stroke="#C49A6C" stroke-miterlimit="10" d="M285.849,68.75c-11.754-6.215-10.73,21.082,5.242,18.923
	C309.518,85.183,296.423,58.141,285.849,68.75"/>
<path fill="none" stroke="#C49A6C" stroke-miterlimit="10" d="M262.781,172.552c-8.706-15.516-22.402-6.755-30.115,4.252
	c-10.33,14.741-14.579,29.02,3.906,39.757c11.153,6.478,42.024,3.778,47.438-9.409c6.312-15.371-20.803-20.075-20.182-36.698"/>
<path fill="none" stroke="#C49A6C" stroke-miterlimit="10" d="M303.673,169.407c-10.691-6.018-27.678,29.487-4.193,29.358
	c7.812-0.043,14.234-7.71,15.519-15.961c1.995-12.813-8.868-9.607-15.519-16.543"/>
<path fill="none" stroke="#C49A6C" stroke-miterlimit="10" d="M270.121,283.694c-13.195-4.236-25.042-17.835-33.579,0.998
	c-5.734,12.65-6.119,29.701,7.366,35.701c9.542,4.246,33.468,10.219,38.558-1.283c4.613-10.42-4.873-30.412-12.345-36.464"/>
<path fill="none" stroke="#C49A6C" stroke-miterlimit="10" d="M292.14,271.112c-12.871-6.662-10.465,54.645,16.543,39.631
	c18.125-10.074,1.992-48.217-18.641-38.582"/>
<path fill="none" stroke="#C49A6C" stroke-miterlimit="10" d="M269.072,412.661c-10.88-2.197-20.045-17.129-32.244-7.078
	c-12.782,10.529-1.351,22.938,8.334,29.885c7.109,5.102,23.37,15.99,32.041,10.51c17.039-10.773-6.2-25.236-10.228-33.316"/>
<path fill="none" stroke="#C49A6C" stroke-miterlimit="10" d="M275.364,381.206c-17.659-9.061-3.156,24.324,2.125,29.385
	c6.449,6.178,21.824,23.166,29.121,15.701c7.418-7.59,1.843-27.715-4.245-34.34c-8.368-9.111-19.907-10.916-30.147-10.746"/>
<rect x="176.625" y="355.237" fill="none" stroke="#EC008C" stroke-miterlimit="10" width="168.81" height="113.619"/>
<rect x="7.814" y="176.145" fill="none" stroke="#EC008C" stroke-miterlimit="10" width="168.811" height="113.619"/>
<g>
	<g>
		<path fill="#ED1C24" d="M139.33,191.782c0-0.35,0-0.699,0-1.048c0-1.935-3-1.935-3,0c0,0.35,0,0.699,0,1.048
			C136.33,193.717,139.33,193.717,139.33,191.782L139.33,191.782z"/>
	</g>
</g>
<g>
	<g>
		<path fill="#ED1C24" d="M146.218,187.137c-0.35,0-0.699,0-1.048,0c-1.935,0-1.935,3,0,3c0.35,0,0.699,0,1.048,0
			C148.152,190.137,148.152,187.137,146.218,187.137L146.218,187.137z"/>
	</g>
</g>
<g>
	<g>
		<path fill="#ED1C24" d="M138.878,201.671c1.935,0,1.935-3,0-3S136.944,201.671,138.878,201.671L138.878,201.671z"/>
	</g>
</g>
<g>
	<g>
		<path fill="#ED1C24" d="M147.267,198.525c1.935,0,1.935-3,0-3S145.332,198.525,147.267,198.525L147.267,198.525z"/>
	</g>
</g>
<g>
	<g>
		<path fill="#39B54A" d="M144.121,225.786c1.935,0,1.935-3,0-3S142.186,225.786,144.121,225.786L144.121,225.786z"/>
	</g>
</g>
<g>
	<g>
		<path fill="#39B54A" d="M151.46,224.738c1.935,0,1.935-3,0-3S149.526,224.738,151.46,224.738L151.46,224.738z"/>
	</g>
</g>
<g>
	<g>
		<path fill="#39B54A" d="M143.072,237.32c1.935,0,1.935-3,0-3S141.138,237.32,143.072,237.32L143.072,237.32z"/>
	</g>
</g>
<g>
	<g>
		<path fill="#39B54A" d="M153.57,235.808c-0.35-0.35-0.699-0.699-1.049-1.048c-0.578-0.578-1.543-0.578-2.121,0
			c-0.578,0.578-0.578,1.543,0,2.121c0.35,0.35,0.699,0.699,1.049,1.048c0.578,0.578,1.543,0.578,2.121,0
			C154.148,237.351,154.148,236.385,153.57,235.808L153.57,235.808z"/>
	</g>
</g>
<g>
	<g>
		<path d="M431.657,230.358c-20.812-0.752-42.912,3.257-56.896,20.042c-6.091,7.309-10.859,17.375-10.514,27.041
			c0.267,7.433,4.523,13.685,10.014,18.367c12.846,10.955,32.475,14.43,48.842,14.697c18.449,0.303,38.9-6.521,50.236-21.729
			c11.396-15.287,8.562-36.526-3.018-50.745c-11.824-14.519-31.879-20.379-49.662-14.976c-1.18,0.359-0.824,1.732,0.367,1.37
			c23.93-7.272,49.691,7.384,56.334,31.366c3.166,11.434,0.695,23.875-6.354,33.33c-6.633,8.898-17.117,14.25-27.559,17.258
			c-18.723,5.395-40.744,2.574-58.227-5.721c-8.092-3.838-15.59-9.942-18.246-18.781c-3.213-10.689,2.998-22.698,9.41-30.876
			c12.809-16.334,35.113-19.904,54.613-19.199C431.958,231.837,432.964,230.405,431.657,230.358L431.657,230.358z"/>
	</g>
</g>
<g>
	<g>
		<path fill="#ED1C24" d="M405.128,257.281c-0.418-0.417-0.852-0.901-1.387-1.169c-0.562-0.281-1.154-0.318-1.771-0.319
			c-1.936-0.001-1.936,2.999,0,3c0.186,0,0.371,0.001,0.557,0.011c-0.256-0.041-0.307-0.049-0.154-0.02
			c0.129,0.023,0.314,0.148-0.076-0.047c0.047,0.026,0.094,0.056,0.139,0.088c-0.354-0.238-0.059-0.035,0.016,0.031
			c0.191,0.175,0.373,0.362,0.557,0.546c0.578,0.577,1.543,0.578,2.121,0C405.706,258.825,405.706,257.858,405.128,257.281
			L405.128,257.281z"/>
	</g>
</g>
<g>
	<g>
		<path fill="#ED1C24" d="M403.993,281.584c-0.062-1.424-1.098-2.527-2.549-2.549c-0.816-0.012-1.5,0.691-1.5,1.5
			c0,0.828,0.684,1.488,1.5,1.5c0.266,0.004-0.473-0.117-0.043,0.01c0.143,0.051,0.09,0.029-0.154-0.064
			c0.129,0.08,0.092,0.049-0.107-0.094c0.105,0.112,0.084,0.082-0.068-0.092c-0.023-0.057-0.049-0.113-0.072-0.171
			c0.037,0.158,0.035,0.146-0.006-0.04c0.037,0.816,0.656,1.5,1.5,1.5C403.284,283.084,404.03,282.403,403.993,281.584
			L403.993,281.584z"/>
	</g>
</g>
<g>
	<g>
		<path fill="#ED1C24" d="M450.726,261.209c-0.35,0-0.699,0-1.049,0c-1.934,0-1.934,3,0,3c0.35,0,0.699,0,1.049,0
			C452.661,264.209,452.661,261.209,450.726,261.209L450.726,261.209z"/>
	</g>
</g>
<g>
	<g>
		<path fill="#ED1C24" d="M436.618,245.144c1.936,0,1.936-3,0-3C434.685,242.144,434.685,245.144,436.618,245.144L436.618,245.144z"
			/>
	</g>
</g>
<g>
	<g>
		<path fill="#009444" d="M399.872,270.473c-0.35,0-0.697,0-1.047,0c-1.936,0-1.936,3,0,3c0.35,0,0.697,0,1.047,0
			C401.808,273.473,401.808,270.473,399.872,270.473L399.872,270.473z"/>
	</g>
</g>
<g>
	<g>
		<path fill="#009444" d="M410.356,289.198c1.936,0,1.936-3,0-3C408.423,286.198,408.423,289.198,410.356,289.198L410.356,289.198z"
			/>
	</g>
</g>
<g>
	<g>
		<path fill="#009444" d="M451.251,279.976c1.934,0,1.934-3,0-3C449.315,276.976,449.315,279.976,451.251,279.976L451.251,279.976z"
			/>
	</g>
</g>
<g>
	<g>
		<path fill="#009444" d="M443.911,252.502c1.936,0,1.936-3,0-3C441.978,249.502,441.978,252.502,443.911,252.502L443.911,252.502z"
			/>
	</g>
</g>
<rect x="359.179" y="212.303" fill="none" stroke="#EC008C" stroke-miterlimit="10" width="168.812" height="113.619"/>
<g>
	<g>
		<path fill="#ED1C24" d="M490.694,224.551c0-0.35,0-0.699,0-1.049c0-1.935-3-1.935-3,0c0,0.35,0,0.699,0,1.049
			C487.694,226.486,490.694,226.486,490.694,224.551L490.694,224.551z"/>
	</g>
</g>
<g>
	<g>
		<path fill="#ED1C24" d="M497.585,219.906c-0.35,0-0.699,0-1.049,0c-1.936,0-1.936,3,0,3c0.35,0,0.699,0,1.049,0
			C499.519,222.906,499.519,219.906,497.585,219.906L497.585,219.906z"/>
	</g>
</g>
<g>
	<g>
		<path fill="#ED1C24" d="M494.438,276.463c1.934,0,1.934-3,0-3C492.503,273.463,492.503,276.463,494.438,276.463L494.438,276.463z"
			/>
	</g>
</g>
<g>
	<g>
		<path fill="#ED1C24" d="M502.825,279.976c1.936,0,1.936-3,0-3C500.892,276.976,500.892,279.976,502.825,279.976L502.825,279.976z"
			/>
	</g>
</g>
<g>
	<g>
		<path fill="#39B54A" d="M489.194,231.845c1.934,0,1.934-3,0-3C487.259,228.845,487.259,231.845,489.194,231.845L489.194,231.845z"
			/>
	</g>
</g>
<g>
	<g>
		<path fill="#39B54A" d="M497.585,231.845c1.934,0,1.934-3,0-3C495.649,228.845,495.649,231.845,497.585,231.845L497.585,231.845z"
			/>
	</g>
</g>
<g>
	<g>
		<path fill="#39B54A" d="M494.438,270.088c1.934,0,1.934-3,0-3C492.503,267.088,492.503,270.088,494.438,270.088L494.438,270.088z"
			/>
	</g>
</g>
<g>
	<g>
		<path fill="#39B54A" d="M504.935,268.577c-0.35-0.35-0.699-0.699-1.049-1.049c-0.578-0.578-1.543-0.578-2.121,0
			s-0.578,1.544,0,2.121c0.35,0.35,0.699,0.699,1.049,1.049c0.578,0.578,1.543,0.578,2.121,0S505.513,269.155,504.935,268.577
			L504.935,268.577z"/>
	</g>
</g>
<path fill="none" stroke="#C49A6C" stroke-miterlimit="10" d="M422.903,275.002c1.178-10.584-3.342-28.244-17.145-28.574
	c-15.045-0.359-16.662,18.082-14.918,29.717c1.576,10.498,10.059,26.181,22.918,25.145c12.273-0.988,15.432-15.73,10.287-25.145"/>
<path fill="none" stroke="#C49A6C" stroke-miterlimit="10" d="M437.761,233.855c-18.146-1.886-6.961,21.68-3.146,28.545
	c5.107,9.183,2.387,31.408,13.408,33.201c24.365,3.961,19.398-60.685-10.262-59.46"/>
<g>
	<g>
		<path d="M438.624,95.68c-20.812-0.752-42.912,3.256-56.896,20.041c-6.09,7.31-10.859,17.375-10.514,27.042
			c0.266,7.432,4.521,13.684,10.014,18.366c12.844,10.955,32.475,14.429,48.842,14.698c18.449,0.303,38.9-6.521,50.236-21.729
			c11.395-15.287,8.561-36.525-3.02-50.745c-11.824-14.518-31.877-20.379-49.66-14.976c-1.18,0.359-0.824,1.732,0.367,1.37
			c23.93-7.271,49.691,7.385,56.332,31.366c3.168,11.434,0.695,23.875-6.354,33.33c-6.631,8.897-17.115,14.25-27.557,17.258
			c-18.723,5.395-40.744,2.574-58.229-5.721c-8.09-3.838-15.59-9.943-18.246-18.782c-3.211-10.689,3-22.697,9.412-30.875
			c12.809-16.335,35.111-19.904,54.613-19.199C438.925,97.159,439.929,95.727,438.624,95.68L438.624,95.68z"/>
	</g>
</g>
<g>
	<g>
		<path fill="#ED1C24" d="M412.093,122.602c-0.418-0.417-0.852-0.901-1.387-1.169c-0.561-0.281-1.152-0.319-1.771-0.319
			c-1.934-0.001-1.934,2.999,0,3c0.186,0,0.371,0,0.557,0.011c-0.254-0.042-0.307-0.048-0.152-0.02
			c0.129,0.024,0.312,0.149-0.078-0.046c0.049,0.026,0.096,0.056,0.141,0.087c-0.355-0.237-0.059-0.035,0.014,0.032
			c0.191,0.175,0.373,0.362,0.557,0.546c0.578,0.578,1.543,0.578,2.121,0C412.671,124.146,412.671,123.18,412.093,122.602
			L412.093,122.602z"/>
	</g>
</g>
<g>
	<g>
		<path fill="#ED1C24" d="M458.362,135.483c-0.062-1.425-1.098-2.527-2.549-2.548c-0.816-0.012-1.5,0.691-1.5,1.5
			c0,0.827,0.684,1.488,1.5,1.5c0.266,0.004-0.473-0.117-0.043,0.009c0.143,0.051,0.09,0.029-0.154-0.065
			c0.129,0.081,0.092,0.05-0.107-0.092c0.105,0.111,0.084,0.081-0.068-0.092c-0.023-0.057-0.049-0.115-0.072-0.172
			c0.037,0.158,0.035,0.145-0.006-0.04c0.037,0.816,0.656,1.5,1.5,1.5C457.653,136.983,458.399,136.301,458.362,135.483
			L458.362,135.483z"/>
	</g>
</g>
<g>
	<g>
		<path fill="#ED1C24" d="M448.315,121.114c-0.35,0-0.699,0-1.049,0c-1.934,0-1.934,3,0,3c0.35,0,0.699,0,1.049,0
			C450.251,124.114,450.251,121.114,448.315,121.114L448.315,121.114z"/>
	</g>
</g>
<g>
	<g>
		<path fill="#ED1C24" d="M443.585,110.465c1.934,0,1.934-3,0-3C441.649,107.465,441.649,110.465,443.585,110.465L443.585,110.465z"
			/>
	</g>
</g>
<g>
	<g>
		<path fill="#009444" d="M406.839,135.793c-0.35,0-0.699,0-1.049,0c-1.934,0-1.934,3,0,3c0.35,0,0.699,0,1.049,0
			C408.772,138.793,408.772,135.793,406.839,135.793L406.839,135.793z"/>
	</g>
</g>
<g>
	<g>
		<path fill="#009444" d="M417.323,154.52c1.936,0,1.936-3,0-3C415.39,151.52,415.39,154.52,417.323,154.52L417.323,154.52z"/>
	</g>
</g>
<g>
	<g>
		<path fill="#009444" d="M458.216,145.297c1.936,0,1.936-3,0-3C456.282,142.297,456.282,145.297,458.216,145.297L458.216,145.297z"
			/>
	</g>
</g>
<g>
	<g>
		<path fill="#009444" d="M408.935,147.357c1.936,0,1.936-3,0-3C407.001,144.357,407.001,147.357,408.935,147.357L408.935,147.357z"
			/>
	</g>
</g>
<g>
	<g>
		<path fill="#ED1C24" d="M497.659,89.873c0-0.35,0-0.699,0-1.049c0-1.935-3-1.935-3,0c0,0.35,0,0.699,0,1.049
			C494.659,91.808,497.659,91.808,497.659,89.873L497.659,89.873z"/>
	</g>
</g>
<g>
	<g>
		<path fill="#ED1C24" d="M504.55,85.227c-0.35,0-0.699,0-1.049,0c-1.936,0-1.936,3,0,3c0.35,0,0.699,0,1.049,0
			C506.483,88.227,506.483,85.227,504.55,85.227L504.55,85.227z"/>
	</g>
</g>
<g>
	<g>
		<path fill="#ED1C24" d="M501.403,141.785c1.936,0,1.936-3,0-3C499.47,138.785,499.47,141.785,501.403,141.785L501.403,141.785z"/>
	</g>
</g>
<g>
	<g>
		<path fill="#ED1C24" d="M504.55,97.167c1.934,0,1.934-3,0-3C502.614,94.167,502.614,97.167,504.55,97.167L504.55,97.167z"/>
	</g>
</g>
<g>
	<g>
		<path fill="#39B54A" d="M496.159,97.167c1.936,0,1.936-3,0-3C494.226,94.167,494.226,97.167,496.159,97.167L496.159,97.167z"/>
	</g>
</g>
<g>
	<g>
		<path fill="#39B54A" d="M507.716,147.357c1.934,0,1.934-3,0-3C505.78,144.357,505.78,147.357,507.716,147.357L507.716,147.357z"/>
	</g>
</g>
<g>
	<g>
		<path fill="#39B54A" d="M501.403,135.411c1.936,0,1.936-3,0-3C499.47,132.411,499.47,135.411,501.403,135.411L501.403,135.411z"/>
	</g>
</g>
<g>
	<g>
		<path fill="#39B54A" d="M511.899,133.899c-0.35-0.35-0.697-0.699-1.047-1.049c-0.578-0.578-1.545-0.578-2.121,0
			c-0.578,0.578-0.578,1.543,0,2.121c0.35,0.35,0.697,0.699,1.047,1.049c0.578,0.578,1.545,0.578,2.121,0
			C512.478,135.442,512.478,134.477,511.899,133.899L511.899,133.899z"/>
	</g>
</g>
<path fill="none" stroke="#C49A6C" stroke-miterlimit="10" d="M429.87,140.324c1.174-10.584-3.342-28.244-17.145-28.574
	c-15.047-0.359-16.664,18.082-14.918,29.717c1.576,10.497,10.057,26.18,22.918,25.145c12.271-0.988,15.43-15.731,10.285-25.145"/>
<path fill="none" stroke="#C49A6C" stroke-miterlimit="10" d="M444.728,99.177c-18.146-1.886-6.963,21.68-3.146,28.545
	c5.105,9.182,2.385,31.409,13.406,33.201c24.365,3.96,19.4-60.684-10.26-59.46"/>
<rect x="188.278" y="26.625" fill="none" stroke="#939598" stroke-miterlimit="10" width="145.155" height="448.037"/>
<rect x="353.222" y="56.466" fill="none" stroke="#A7A9AC" stroke-miterlimit="10" width="169.197" height="280.927"/>
<g>
	<g>
		<path fill="#EC008C" d="M82.626,289.395c2.323,34.258,10.084,100.232,57.479,97.252c0.357-0.021,2.167-0.777,1.271-0.721
			c-46.915,2.949-54.525-63.262-56.817-97.049C84.539,288.6,82.594,288.923,82.626,289.395L82.626,289.395z"/>
	</g>
</g>
<g>
	<g>
		<path fill="#EC008C" d="M137.299,364.032c4.036,5.34,8.071,10.68,12.106,16.02c3.051,4.037,0.875,5.418-2.489,8.328
			c-2.973,2.572-6.138,4.918-9.393,7.119c-0.808,0.547,1.133,0.312,1.484,0.074c5.356-3.623,10.353-7.699,14.992-12.205
			c0.065-0.049,0.095-0.113,0.09-0.191c-4.953-6.555-9.905-13.107-14.858-19.662C138.867,363.034,137.139,363.821,137.299,364.032
			L137.299,364.032z"/>
	</g>
</g>
<g>
	<g>
		<path fill="#EC008C" d="M357.367,473.375c16.316,2.775,32.192-0.713,44.679-11.854c11.623-10.367,18.252-25.459,21.783-40.348
			c0.221-0.932-1.756-0.689-1.955,0.152c-3.32,13.992-9.357,27.459-19.529,37.822c-11.766,11.988-28.096,15.598-44.304,12.84
			C357.101,471.829,356.073,473.157,357.367,473.375L357.367,473.375z"/>
	</g>
</g>
<g>
	<g>
		<path fill="#EC008C" d="M414.659,419.956c2.822-3.914,6.812-6.654,11.049-8.861c-0.465-0.1-0.928-0.201-1.393-0.303
			c1.592,6.176,3.701,12.24,5.715,18.289c0.293,0.875,2.219,0.342,1.932-0.518c-2.014-6.049-4.123-12.113-5.715-18.289
			c-0.143-0.559-1.002-0.504-1.391-0.303c-4.504,2.346-8.809,5.264-11.811,9.426C412.327,420.393,414.147,420.665,414.659,419.956
			L414.659,419.956z"/>
	</g>
</g>
<text transform="matrix(1 0 0 1 29.2227 124.6958)"><tspan x="0" y="0" font-family="'MyriadPro-Regular'" font-size="16">nuclei with 8 spots:</tspan><tspan x="0" y="19.2" font-family="'MyriadPro-Regular'" font-size="16">4 Cy5 spots</tspan><tspan x="0" y="38.4" font-family="'MyriadPro-Regular'" font-size="16">and 4 A594 spots</tspan></text>
<text transform="matrix(1 0 0 1 29.2227 417.2681)"><tspan x="0" y="0" font-family="'MyriadPro-Regular'" font-size="16">nuclei with 2 clusters</tspan><tspan x="0" y="19.201" font-family="'MyriadPro-Regular'" font-size="16">of 4 spots</tspan></text>
<text transform="matrix(1 0 0 1 356.1885 355.2368)"><tspan x="0" y="0" font-family="'MyriadPro-Regular'" font-size="16">nuclei with 2 clusters of 4 </tspan><tspan x="0" y="19.201" font-family="'MyriadPro-Regular'" font-size="16">spots of 2 Cy5 spots and </tspan><tspan x="0" y="38.4" font-family="'MyriadPro-Regular'" font-size="16">2 A594 spots</tspan></text>
<text transform="matrix(1 0 0 1 198.6274 20.1357)" font-family="'MyriadPro-Bold'" font-size="16">K-means clustering</text>
</svg>
