<?xml version="1.0" encoding="iso-8859-1"?>
<!-- Generator: Adobe Illustrator 13.0.2, SVG Export Plug-In . SVG Version: 6.00 Build 14948)  -->
<!DOCTYPE svg PUBLIC "-//W3C//DTD SVG 1.1//EN" "http://www.w3.org/Graphics/SVG/1.1/DTD/svg11.dtd">
<svg version="1.1" id="Layer_1_xA0_Image_1_" xmlns="http://www.w3.org/2000/svg" xmlns:xlink="http://www.w3.org/1999/xlink"
	 x="0px" y="0px" width="383.875px" height="318.831px" viewBox="0 0 383.875 318.831"
	 style="enable-background:new 0 0 383.875 318.831;" xml:space="preserve">
<g>
	<path style="fill-rule:evenodd;clip-rule:evenodd;" d="M189.879,41.81c0.773-0.158,0.699,1.989-0.426,1.278
		C189.252,42.52,189.394,42.094,189.879,41.81"/>
	<path style="fill-rule:evenodd;clip-rule:evenodd;" d="M194.567,43.941c0.066,1.194-1.205,1.39-1.705,0.852
		C192.965,44.043,193.596,43.822,194.567,43.941z"/>
	<path style="fill-rule:evenodd;clip-rule:evenodd;" d="M197.125,47.35c-0.92,0.508-2.95,1.187-3.836,0.426
		C193.37,46.43,196.437,46.788,197.125,47.35z"/>
	<path style="fill-rule:evenodd;clip-rule:evenodd;" d="M52.647,64.824c1.464-1.436,3.232,0.441,4.688,0.426
		C56.101,66.456,54.072,64.841,52.647,64.824z"/>
	<path style="fill-rule:evenodd;clip-rule:evenodd;" d="M309.638,64.398c-0.97,0.735-2.498,0.912-4.263,0.852
		C306.345,64.515,307.874,64.338,309.638,64.398z"/>
	<path style="fill-rule:evenodd;clip-rule:evenodd;" d="M53.5,72.069c2.165,3.289-7.925,1.691-9.257,1.809
		c-4.598,0.407-8.958,1.933-13.331,3.305c1.081,2.225,1.234,4.756,2.173,7.032c1.201,2.91,6.877,1.352,9.542,1.115
		c2.96-0.263,15.087-2.723,16.839,0.802c-13.407-0.243-26.879,0.392-40.062,2.983c2.644-3.619,9.376-2.492,13.212-2.983
		c-0.683-2.991-1.637-5.916-2.131-8.95c-0.787-0.92-3.854,0.515-3.836-1.279c4.055,1.422,8.345-2.009,12.34-2.476
		C43.737,72.874,48.95,73.834,53.5,72.069"/>
	<path style="fill-rule:evenodd;clip-rule:evenodd;" d="M54.778,74.2c1.028-0.302,5.282-0.179,6.819,0.426
		C60.189,76.868,56.259,74.683,54.778,74.2z"/>
	<path style="fill-rule:evenodd;clip-rule:evenodd;" d="M187.749,75.052c0.48-0.443,1.048-0.585,1.705-0.426
		C189.453,77.371,188.808,75.343,187.749,75.052"/>
	<path style="fill-rule:evenodd;clip-rule:evenodd;" d="M112.739,75.905c-0.136-0.752,2.388-0.761,1.705,0.426
		C113.68,76.385,113.545,75.809,112.739,75.905z"/>
	<path style="fill-rule:evenodd;clip-rule:evenodd;" d="M115.723,76.331c0.132-0.579,1.067-0.354,1.705-0.426
		C117.295,76.483,116.36,76.258,115.723,76.331z"/>
	<path style="fill-rule:evenodd;clip-rule:evenodd;" d="M117.854,77.184c-1.556,1.301-7.238-0.594-2.983-0.426
		C115.88,76.797,117.005,77.555,117.854,77.184z"/>
	<path style="fill-rule:evenodd;clip-rule:evenodd;" d="M189.453,76.757c0.882,0.424,1.167,1.134,0.853,2.131
		c-0.902-0.328-1.754-0.754-2.557-1.279C188.159,76.368,189.312,78.512,189.453,76.757"/>
	<path style="fill-rule:evenodd;clip-rule:evenodd;" d="M186.896,77.609c1.442,0.537,0.233,2.879,2.557,2.131
		C189.117,81.876,186.685,79.303,186.896,77.609"/>
	<path style="fill-rule:evenodd;clip-rule:evenodd;" d="M196.272,78.036c-0.7,0.581-1.41,1.149-2.131,1.705
		C193.774,77.069,194.783,78.212,196.272,78.036"/>
	<path style="fill-rule:evenodd;clip-rule:evenodd;" d="M131.065,78.888c0.109-0.998,1.873-0.246,2.131,0
		C133.087,79.886,131.324,79.134,131.065,78.888z"/>
	<path style="fill-rule:evenodd;clip-rule:evenodd;" d="M190.731,79.314c0.988,0.119,0.98,1.138,0.426,1.705
		C190.58,80.887,190.804,79.952,190.731,79.314z"/>
	<path style="fill-rule:evenodd;clip-rule:evenodd;" d="M194.567,80.167c0.426,0,0.852,0,1.278,0
		C196.048,81.325,194.567,82.557,194.567,80.167"/>
	<path style="fill-rule:evenodd;clip-rule:evenodd;" d="M148.113,81.445c0.007-0.651,3.158-0.935,2.557,0.426
		C149.62,81.928,148.617,81.936,148.113,81.445z"/>
	<path style="fill-rule:evenodd;clip-rule:evenodd;" d="M151.522,81.445c1.027-0.175,0.926,0.778,2.131,0.426
		C153.728,82.566,150.865,82.732,151.522,81.445z"/>
	<path style="fill-rule:evenodd;clip-rule:evenodd;" d="M194.141,81.445c0.116,1.891-1.442,0.152-1.705,2.131
		C189.776,83.321,192.67,81.065,194.141,81.445"/>
	<path style="fill-rule:evenodd;clip-rule:evenodd;" d="M192.01,85.707c-1.34,0.062-1.464-1.093-1.705-2.131
		C191.646,83.515,191.77,84.669,192.01,85.707z"/>
	<path style="fill-rule:evenodd;clip-rule:evenodd;" d="M211.615,92.952c2.171-1.304,4.846,0.542,7.672,0
		C217.903,95.041,213.594,93.069,211.615,92.952z"/>
	<path style="fill-rule:evenodd;clip-rule:evenodd;" d="M191.584,95.509c0.132-0.578,1.067-0.354,1.705-0.426
		C193.157,95.662,192.222,95.437,191.584,95.509z"/>
	<path style="fill-rule:evenodd;clip-rule:evenodd;" d="M191.584,101.05c0.377-1.155,1.891,0.359,0.853,0.853
		C191.974,101.797,192.147,101.055,191.584,101.05z"/>
	<path style="fill-rule:evenodd;clip-rule:evenodd;" d="M166.013,103.607C168.021,103.607,166.013,105.615,166.013,103.607"/>
	<path style="fill-rule:evenodd;clip-rule:evenodd;" d="M208.631,104.459C210.639,104.459,208.631,106.466,208.631,104.459"/>
	<path style="fill-rule:evenodd;clip-rule:evenodd;" d="M171.127,105.738c1.705-0.568,2.273,0,1.705,1.705
		C171.575,107.629,170.941,106.994,171.127,105.738"/>
	<path style="fill-rule:evenodd;clip-rule:evenodd;" d="M209.91,106.59c0.173-0.942,2.498-0.57,1.705,0.852
		C210.984,107.221,210.541,106.812,209.91,106.59z"/>
	<path style="fill-rule:evenodd;clip-rule:evenodd;" d="M176.241,109.147c0.078,0.93-0.349,1.356-1.278,1.278
		C174.885,109.496,175.312,109.07,176.241,109.147z"/>
	<path style="fill-rule:evenodd;clip-rule:evenodd;" d="M178.372,118.097c1.243-0.626,1.243,1.905,0,1.279
		C178.372,118.95,178.372,118.523,178.372,118.097z"/>
	<path style="fill-rule:evenodd;clip-rule:evenodd;" d="M221.843,118.523c0.988,0.119,0.979,1.138,0.426,1.705
		C221.282,120.109,221.29,119.09,221.843,118.523z"/>
	<path style="fill-rule:evenodd;clip-rule:evenodd;" d="M223.974,118.95C225.982,118.95,223.974,120.958,223.974,118.95"/>
	<path style="fill-rule:evenodd;clip-rule:evenodd;" d="M220.138,119.376c0.812,0.269,1.239,0.837,1.279,1.705
		C218.926,121.081,219.746,121.066,220.138,119.376"/>
	<path style="fill-rule:evenodd;clip-rule:evenodd;" d="M156.637,119.802c0.426,0,0.852,0,1.278,0
		c-0.052,1.084-0.62,1.653-1.705,1.705C156.353,120.938,156.495,120.371,156.637,119.802"/>
	<path style="fill-rule:evenodd;clip-rule:evenodd;" d="M224.401,121.507c0.101-0.745,2.404-0.181,2.131,0.853
		C225.171,122.725,225.213,121.688,224.401,121.507z"/>
	<path style="fill-rule:evenodd;clip-rule:evenodd;" d="M197.977,127.899c0.572,0.281,0.794,0.911,0.853,1.705
		C197.502,129.804,197.306,128.533,197.977,127.899z"/>
	<path style="fill-rule:evenodd;clip-rule:evenodd;" d="M226.958,129.604c-0.674-0.484-2.862-0.871-1.705,0.852
		c-0.812-0.27-1.238-0.838-1.278-1.705C225.078,128.696,226.732,127.78,226.958,129.604"/>
	<path style="fill-rule:evenodd;clip-rule:evenodd;" d="M180.929,129.604c0.773-0.158,0.699,1.989-0.426,1.278
		C180.303,130.315,180.445,129.889,180.929,129.604"/>
	<path style="fill-rule:evenodd;clip-rule:evenodd;" d="M228.236,129.604c0.413,0.408,0.413,0.834,0,1.278
		c-0.689-0.245-1.399-0.387-2.131-0.426C225.905,129.217,228.437,130.844,228.236,129.604"/>
	<path style="fill-rule:evenodd;clip-rule:evenodd;" d="M196.272,130.031c0.659,0.619,0.895,1.662,0.853,2.983
		C195.905,132.954,196.345,131.236,196.272,130.031z"/>
	<path style="fill-rule:evenodd;clip-rule:evenodd;" d="M194.567,131.735C195.669,130.268,195.597,133.927,194.567,131.735
		L194.567,131.735z"/>
	<path style="fill-rule:evenodd;clip-rule:evenodd;" d="M183.06,140.259c-0.179,0.949-2.261,0.334-2.557,0
		C181.175,138.739,182.028,140.462,183.06,140.259z"/>
	<path style="fill-rule:evenodd;clip-rule:evenodd;" d="M212.893,150.487c0.491-1.379,0.482,1.145,0.427,1.705
		C212.829,153.571,212.837,151.048,212.893,150.487z"/>
	<path style="fill-rule:evenodd;clip-rule:evenodd;" d="M180.077,152.619c0.162-0.812,0.542,0.272,0.426,0.852
		C180.341,154.282,179.961,153.199,180.077,152.619z"/>
	<path style="fill-rule:evenodd;clip-rule:evenodd;" d="M214.172,162.421c1.062,2.549,1.366,7.929,1.278,10.229
		C214.647,169.617,214.122,166.307,214.172,162.421z"/>
	<path style="fill-rule:evenodd;clip-rule:evenodd;" d="M215.876,162.421c0.75,0.103,0.972,0.733,0.853,1.705
		C215.979,164.022,215.757,163.393,215.876,162.421z"/>
	<path style="fill-rule:evenodd;clip-rule:evenodd;" d="M181.355,162.847C183.203,163.024,180.907,165.32,181.355,162.847
		L181.355,162.847z"/>
	<path style="fill-rule:evenodd;clip-rule:evenodd;" d="M182.634,163.273c0.162-0.812,0.542,0.271,0.426,0.853
		C182.898,164.937,182.518,163.854,182.634,163.273z"/>
	<path style="fill-rule:evenodd;clip-rule:evenodd;" d="M217.582,179.042c-0.774-0.504-0.335-2.222-0.853-2.983
		C217.775,176.345,218.035,178.539,217.582,179.042z"/>
	<path style="fill-rule:evenodd;clip-rule:evenodd;" d="M205.222,178.189c0.162-0.812,0.542,0.272,0.426,0.853
		C205.486,179.854,205.106,178.77,205.222,178.189z"/>
	<path style="fill-rule:evenodd;clip-rule:evenodd;" d="M175.815,186.714c0.988,0.118,0.979,1.138,0.426,1.704
		C175.663,188.286,175.888,187.352,175.815,186.714z"/>
	<path style="fill-rule:evenodd;clip-rule:evenodd;" d="M163.456,187.992c1.295,0.525-0.462,1.466,0,2.557
		C162.507,190.37,163.122,188.288,163.456,187.992z"/>
	<path style="fill-rule:evenodd;clip-rule:evenodd;" d="M177.52,192.254c1.176,2.036,1.236,5.262,1.278,6.393
		C177.399,197.489,177.75,194.58,177.52,192.254z"/>
	<path style="fill-rule:evenodd;clip-rule:evenodd;" d="M202.239,195.237c0.941,0.053,0.181,1.808,0.426,2.557
		C201.144,197.433,202.614,196.745,202.239,195.237z"/>
	<path style="fill-rule:evenodd;clip-rule:evenodd;" d="M203.517,197.794c1.295,0.525-0.462,1.466,0,2.558
		C202.569,200.172,203.184,198.09,203.517,197.794z"/>
	<path style="fill-rule:evenodd;clip-rule:evenodd;" d="M180.503,199.925c0.988-0.136,1.636,0.069,2.131,0.427
		C182.597,201.619,180.093,201.491,180.503,199.925z"/>
	<path style="fill-rule:evenodd;clip-rule:evenodd;" d="M184.765,204.188c1.922-0.04-0.187,1.287,0.426,2.557
		C184.25,206.691,185.01,204.937,184.765,204.188z"/>
	<path style="fill-rule:evenodd;clip-rule:evenodd;" d="M186.043,208.449c0.949,0.179,0.334,2.261,0,2.557
		C185.095,210.827,185.71,208.745,186.043,208.449z"/>
	<path style="fill-rule:evenodd;clip-rule:evenodd;" d="M185.617,212.284c1.341-0.487,1.036,0.67,1.705,0.853
		C187.055,214.174,185.169,213.362,185.617,212.284z"/>
	<path style="fill-rule:evenodd;clip-rule:evenodd;" d="M189.027,223.792C191.035,223.792,189.027,225.8,189.027,223.792"/>
	<path style="fill-rule:evenodd;clip-rule:evenodd;" d="M190.306,226.349c-0.426-1.278,0-1.704,1.278-1.278
		C191.661,226,191.235,226.426,190.306,226.349"/>
	<path style="fill-rule:evenodd;clip-rule:evenodd;" d="M189.453,230.61c-0.866-0.311-1.74-1.282-0.853-2.131
		C190.076,228.181,190.129,229.974,189.453,230.61z"/>
	<path style="fill-rule:evenodd;clip-rule:evenodd;" d="M189.879,243.396c0.988,0.119,0.979,1.138,0.426,1.704
		C189.727,244.969,189.952,244.034,189.879,243.396z"/>
	<path style="fill-rule:evenodd;clip-rule:evenodd;" d="M195.846,244.249C195.23,242.409,200.584,244.249,195.846,244.249"/>
	<path style="fill-rule:evenodd;clip-rule:evenodd;" d="M208.206,73.348c1.742,0.626,2.018,2.1,2.131,3.836
		c-1.014,0.134-0.421-1.229-1.278-1.279c-0.078,0.788-0.362,1.498-0.853,2.131c6.733-0.52,13.437-1.445,20.112-2.445
		c2.738-0.41,13.037-3.764,15.261-0.964c-4.126-0.126-8.341,0.896-12.359,1.705c1.32,2.296,8.236-2.223,10.104-0.444
		c1.214,1.157,2.405-0.906,3.107-1.261c3.468,0.774,6.729-2.019,10.229-0.852c-2.785-2.399-7.422,0.604-10.654,0
		c8.058-2.502,17.126-2.945,25.415-4.705c2.921-0.62,5.434-0.333,8.487-1.125c4.901-1.271,9.91-2.203,14.876-3.179
		c19.044-3.742,37.695-6.618,57.138-5.583c10.445,0.556,35.945,2.156,33.83,18.425c-0.656,5.052-6.476,9.859-10.28,12.543
		c-6.51,4.591-14.868,11.313-22.92,12.604c0.682-1.919,7.884-4.411,9.777-5.566c4.288-2.614,8.608-5.212,12.565-8.317
		c3.58-2.81,8.381-6.489,8.723-11.125c0.358-4.852-1.146-8.071-5.185-10.902c-7.778-5.452-17.235-6.532-26.449-5.704
		c-5.273,0.474-10.622,1.227-15.787,2.402c-1.838,0.418-3.65,0.953-5.38,1.707c-0.176,2.228,1.852,3.733,0.853,5.967
		c9.598-1.874,18.239,3.525,27.702,2.983c0.037,1.692-2.806,1.965-3.836,1.278c-1.799,2.217-1.26,5.68-3.409,7.671
		c1.721,2.079,12.344,0.972,12.786,3.836c-8.381-2.834-17.646-2.799-26.388-2.604c-4.418,0.099-8.832,0.322-13.248,0.473
		c-1.507,2.682-0.061,6.537-2.131,8.95c8.666,0.33,16.999,2.799,25.571,3.835c-2.113,3.028-6.84-0.34-9.376-0.852
		c-5.559-1.124-11.263-1.245-16.914-1.124c-5.132,0.11-10.258,0.34-15.39,0.446c-3.188,0.066-13.781-0.777-8.487,4.603
		c2.628,2.671,2.704,3.959,6.763,5.098c4.827,1.354,9.862,2.059,14.85,2.484c5.74,0.49,11.409-0.244,17.048-1.278
		c5.114-0.939,10.016-4.267,15.342-3.836c-11.305,4.579-22.239,7.88-34.547,6.163c-12.753-1.778-25.143-3.57-38.021-4.332
		c-13.721-0.812-27.67-2.653-41.413-2.293c-5.317,0.139-9.913-0.664-15.032-1.933c-3.61-0.895-10.083-3.966-11.201-7.834
		c3.199,3.862,8.004,6.219,12.809,7.369c4.054,0.97,14.021,2.553,17.024-1.402c-5.444-3.28-11.625-5.132-17.9-5.967
		c8.35-1.307,14.29,4.127,21.736,6.393c6.771,2.06,16.927,3.626,23.866,2.131c-3.459-5.841-8.388-4.456-14.358-5.778
		c-5.022-1.112-10.178-1.505-15.252-2.353c-7.967-1.331-23.702-6.936-30.404-0.363c-3.147,3.087-4.567,9.69,1.598,8.002
		c2.986-0.818,6.107,0.16,8.963,0.999c3.275,0.961,6.662,0.744,9.818,1.827c5.995,2.058,11.795,4.219,17.9,5.763
		c8.141,2.059,15.76,2.839,23.663,5.959c12.579,4.965,25.962,7.878,38.005,14.381c5.714,3.085,9.749,6.439,11.21,12.902
		c-0.857,2.504-1.359,5.603-3.667,7.024c-2.732,1.683-5.854,2.627-9.008,3.117c-12.978,2.015-26.074-1.878-38.446-5.223
		c-6.471-1.75-13.001-3.429-19.229-5.939c-3.148-1.269-6.225-2.763-9.043-4.665c-2.576-1.738-6.342,0.018-9.68-0.708
		c-0.821,4.375,1.245,8.51,1.705,12.786c0.214,1.997-0.373,3.976,0,5.967c0.418,2.233,1.998,4.081,2.131,6.393
		c0.438,7.757,3.552,16,7.245,23.014c0.801-0.73,0.566-6.385,2.495-3.961c1.09,1.369,0.532,3.15-0.377,4.438
		c-1.893,2.682-7.773,5.808-8.938,0.803c2.42-0.369,0.53,0.929,1.705,1.704c0.127-1.7,2.062-0.597,2.983-0.426
		c-0.074-2.289-1.995-3.468-2.558-5.54c0.641-0.718,1.493,2.287,2.558,2.131c0.012-2.195-1.997-3.406-2.131-5.541
		c-0.951,0.055-0.271,2.08-0.427,2.558c-1.189-2.331-0.494-3.563-2.557-5.114c-1.213-3.465-2.363-6.952-3.369-10.482
		c-1.96-6.88-3.326-13.919-3.876-21.056c1.401,1.687,1.094,4.127,1.51,6.133c0.182,1.1,0.672,2.039,1.473,2.817
		c-0.153,1.285-1.059,0.742-0.426,2.131c1.5-0.934,0.671-9.025-0.453-10.191c-1.719-1.784,0.522-7.711-1.252-9.414
		c-2.272,1.783,1.434,7.454-1.278,8.098c0.272-2.454-0.651-4.794-0.426-7.245c-1.701-1.807-4.43-1.402-6.205-3.32
		c-3.268-3.53-8.801-8.458-8.712-13.727c0.224,5.739,9.85,14.889,15.343,15.343c0.8-1.386-0.712-2.36-0.426-3.836
		c0.985,0.884,1.562,1.666,2.983,0.853c0.005-0.331-2.187,3.151-1.277,2.378c0.386-0.645,0.953-0.869,1.703-0.673
		c-0.166,0.562-0.308,1.13-0.426,1.705c2.838,0.533,5.682,0.45,8.523,0c0.522-1.368-1.375-0.336-0.853-1.705
		c3.832,2.092,6.844,5.443,11.081,6.819c-9.75-11.128-20.396-24.125-34.521-28.554c1.481,3.029,5.646,3.821,6.819,7.245
		c-2.976-0.667-2.981-3.315-5.236-4.708c-1.881-1.162-4.018-2.295-4.992-3.816c9.156-1.183,16.859,7.358,22.983,12.662
		c3.521,3.05,7.048,6.163,9.833,9.926c3.996-0.828,5.625-4.475,8.098-7.245c-8.793-4.574-17.521-9.277-26.424-13.638
		c-1.191,0.483,0.35,1.73,0,2.557c-1.626-0.771-3.765-1.167-3.836-3.41c1.009,0.696,1.039,2.133,2.558,2.131
		c-0.116-1.231-1.062-1.273-0.427-2.557c-2.438-0.025-10.696-3.941-10.654-6.393c1.643,0.791,3.612,2.123,5.54,1.278
		c-2.688,1.379,4.423,1.47,2.481-0.35c-0.412-0.386-1.141,0.66-1.553,0.273c-1.353-1.268,2.758-0.776,2.907-0.776
		c0.147,1.011-0.137,1.863-0.853,2.557c9.295,2.573,18.949,3.841,28.194,6.536c3.644,1.062,7.15,2.59,10.883,3.344
		c4.726,0.955,9.552-0.909,14.196,0.349c-17.419-6.016-35.688-9.04-53.273-14.49c1.211,2.425-1.444-0.494-2.983-0.852
		c-1.111,0.394,0.146,2.656-1.704,2.131c0.833-0.791-0.342-1.408,0.426-2.131c-2.556-0.103-5.124,0.311-7.671,0
		c-0.07,2.01,1.15-0.315,1.704,0.852c-0.33,1.471-1.508,0.479-2.131,0c-2.1,3.486-2.043,4.728-0.122,8.099
		c2.22,3.899,0.306,6.705,0.975,10.653c0.551,3.253,3.053,5.409,4.688,8.098c-0.928,2.46,0.527,5.542,1.058,8.17
		c1.693,8.38,2.36,16.931,3.463,25.398c1.18,9.051,3.757,17.638,5.708,26.523c-1.464-0.327-1.081-2.464-1.705-3.409
		c-0.926,1.593,0.427,4.209,1.278,5.54c-0.017,3.176,0.611,6.367,1.185,9.478c1.426,7.725,2.448,15.391,3.446,23.18
		c0.986,7.702,4.295,14.714,5.028,22.347c0.748,7.78-0.174,15.617,0.144,23.414c1.932-0.266,1.772-2.904,3.836-2.983
		c2.308,6.043-12.701,9.37-10.655,0c1.177,1.295,1.542,3.18,2.983,4.263c1.534-0.423,0.117-3.273,0.426-4.263
		c0.239-0.146,0.646,4.338,1.279,4.688c2.379-0.894,1.355-4.155,1.278-5.967c-1.609,1.585-0.576-3.356-2.131,0.427
		c-1.146-4.953,0.135-10.419-0.441-15.473c-0.695-6.111-2.45-12.387-4.216-18.304c-4.432-14.843-4.738-31.082-7.276-46.347
		c3.322,6.639,3.048,16.736,4.418,24.051c1.366,7.291,0.069,17.391,4.532,23.682c-1.165-3.741,0.101-7.808-1.705-11.507
		c1.035,0.19-0.137,2.348,1.279,2.131c-2.072-12.089-3.241-24.34-5.84-36.337c-0.905-4.175-2.642-1.567-4.01-5.071
		c-1.132-2.896-2.344-7.095-1.231-10.16c-0.377,1.037,0.509,7.111,1.278,8.098c1.443-0.092-0.029-2.8,1.705-2.558
		c0.057,1.944,0.187,3.266,0.853,5.114c-1.568,0.445-1.124-0.771-2.132-1.278c-1.062,0.964,2.017,1.681,2.132,2.557
		c2.539-2.04-2.303-6.818,0.852-6.818c-1.192-0.702-2.045-1.696-2.557-2.983c0.532,0.127,0.959,0.411,1.278,0.853
		c0.553-0.258,0.156-3.002-1.278-1.705c0.154-1.265-0.746-5.852-0.773-5.403c0.323,0.469,0.438,0.991,0.347,1.567
		c-2.542-1.965,0.337-4.267-1.278-6.393c1.755-0.714,0.063,1.851,1.278,1.705c1.68-2.179-4.183-9.184-0.852-9.803
		c-0.272-0.798-0.841-1.082-1.705-0.853c2.638-7.667-3.025-16.009-2.131-23.866c-2.919-0.102,0.342,2.854-2.131,2.983
		c0.543-1.521-0.365-0.285-1.025-0.024c-1.896,0.747-1.261,2.444-1.38,4.723c-0.126,2.417-0.211,4.837-0.199,7.258
		c0.009,1.96-1.111,3.696-0.806,5.517c0.574,0.487,0.858,0.345,0.853-0.426c1.764,6.686,1.12,13.817,1.259,20.654
		c0.087,4.289,0.27,6.032-1.447,9.843c-1.278,2.839,1.041,5.922,0.615,9.139c1.696-3.467,0.191-7.448,0.853-11.081
		c1.183,3.946,0.246,8.347,0,12.359c-2.276-0.466-1.539-2.024-1.295-3.692c0.281-1.931-1.819-1.747-1.263-3.126
		c-5.196,3.476-7.879,9.729-13.638,12.359c2.675,0.895-1.119,4.53,2.215,4.907c2.357,0.266,6.982,0.521,8.439-1.924
		c0.143,0.117,2.722,1.572,2.144,0.621c-1.121-1.841-0.069-0.45,0.964-2.858c0.729-1.695,0.138-4.535,1.581-5.86
		c1.327,1.763,1.697,10.122-0.853,11.081c0.509,0.402,1.077,0.686,1.705,0.852c-0.162,2.45-0.187,4.907-0.141,7.361
		c0.074,4.005,0.344,8.002,0.512,12.004c0.306,7.293,0.601,15.699-3.781,21.976c-0.233-0.334-0.519-0.619-0.853-0.853
		c-1.256,4.1-5.09,6.456-5.114,11.081c-5.743,0.188-3.17,10.508-2.561,14.363c1.243,7.854,0.853,15.906,2.07,23.856
		c1.185,7.732,3.74,16.735-0.361,24.003c-1.888-0.032-1.037-6.419-1.131-7.703c-0.16-2.201-0.369-4.42-0.871-6.575
		c-0.679-2.916,0.044-1.633,0.723-4.048c-0.622-0.054-0.906,0.23-0.852,0.853c-0.836-3.239-0.891-6.588-0.992-9.909
		c-0.033-1.677-0.137-3.348-0.312-5.016c-1.192-2.486-0.758-3.194,1.304-2.122c-0.234-0.646-4.271-2.779-0.853-2.983
		c-0.326-0.403-0.752-0.545-1.278-0.427c-0.086-2.246-0.02-4.494-0.007-6.74c0.016-2.826,0.292-6.505-1.271-9.028
		c0.292,9.13-0.304,18.271,0.064,27.397c0.338,8.373,2.211,18.058-1.769,25.876c-3.024-1.153-0.185-19.727-0.123-22.315
		c0.25-10.46-0.001-20.923,0.123-31.384c-1.131,5.549-1.209,10.99-0.853,16.621c-1.597-3.3,0.096,3.451,0,3.836
		c-0.562-0.167-1.13-0.31-1.705-0.427c0.682,1.264,2.083,7.543-0.426,7.245c0.327,0.403,0.753,0.545,1.279,0.427
		c-1.565,2.443,0.299,10.692-3.41,11.507c2.009-0.277,0.782,5.175,0.561,5.925c-0.89,3.021,1.294,8.991-2.691,8.991
		c0.482-12.453,2.284-24.798,3.428-37.195c0.566-6.141,0.97-12.303,0.955-18.472c-0.006-2.5,0.899-5.39-1.834-6.405
		c-1.721-0.639-2.666-4.038-4.096-5.336c-8.91-8.079-8.165-18.153-7.567-29.295c0.655-12.231-0.711-24.461-0.688-36.693
		c3.711,3.672,0.621,8.847,2.131,13.212c0.919-1.466,1.881,3.748,2.131,4.262c1.229-0.44-0.112-1.845,0-2.557
		c1.348,1.173,1.735,2.979,1.705,4.688c0.996-0.192,0.259-2.401,0.426-2.983c0.888,0.96,1.172,2.097,0.853,3.41
		c1.619,0.428,0.351-1.812,1.278-2.131c0.945,2.503,2.78,7.632-0.852,8.949c0.12,0.901,2.767,1.557,2.557,0
		c1.609,1.835,0.317,5.435,2.557,6.819c0.78-1.466-0.247-3.396-0.853-4.688c2.788-0.519,1.606,6.334,1.97,6.337
		c-0.341-0.31-0.713-0.575-1.118-0.797c-0.512,1.688,0.67,1.559,1.705,2.131c-0.394,1.369-1.733,1.877-2.983,2.131
		c0.827,1.148,2.439,1.173,1.279,2.983c0.101,0.111,4.424-1.55,3.166-0.03c-1.678,2.024-2.936,0.559-4.871,0.883
		c-0.344,0.67,1.191,1.442,0,1.705c0.769-0.194,4.065,3.788,3.912,2.999c-0.254-0.37-0.542-0.712-0.864-1.025
		c0.402,0.859,1.992,1.082,2.641,0.196c0.315,0.517,0.55,1.071,0.704,1.665c1.435-0.955,0.226-2.471-0.388-3.481
		c-1.14-1.877,0.74-2.284,0.736-2.348c-0.323,0.469-0.439,0.991-0.348,1.567c0.625-0.731,0.909-1.584,0.853-2.557
		c0.975,0.322,0.3,2.925,1.425,3.688c2.409,1.636,0.681-1.886,0.28-2.41c-0.058,0.246,5.375-3.047,0.852-2.131
		c-0.389-1.423,1.068-0.708,1.279-1.705c-0.753-3.305-2.262,1.81-2.131,1.705c-1.429-1.603,0.297-3.477,0.426-5.114
		c-2.276,1.149-1.791,3.395-1.705,5.54c-1.305-1.013-0.29-2.408-2.557-2.131c0.463-1.431-0.242-7.09-0.7-7.625
		c-0.872-1.02-1.795-6.771-1.332-7.525c-1.094,1.785-1.442-2.342,0.327-2.323c-1.466-0.467-2.588-1.276-2.557-2.983
		c0.772,0.063,1.056,0.489,0.853,1.278c0.294-1.275,2.721-1.069,3.409-0.426c0.046-2.441,0.592-4.911-0.426-7.245
		c-2.672-1.064-5.197-2.523-7.348-4.444c-4.607-4.113-6.885-9.979-7.569-16.013c-0.927,3.018,0.689,5.947,0.852,8.95
		c-2.94,0.408-1.157-19.488-1.046-21.986c0.397-9.002,0.818-18.012,0.62-27.025c1.615,1.022,3.657,1.948,3.93,4.097
		c0.455,3.589-2.139,0.974-2.225,3.148c-1.302,0.075,0.449-2.632-0.853-2.557c-1.33,7.371,8.931,13.01,14.49,8.098
		c5.973,2.732,15.496,1.138,15.769-6.819c-4.148,1.017-6.932,4.384-11.461,5.145c-4.666,0.784-9.898,0.662-14.11-1.735
		c1.061,0.02,2.93-0.64,3.41,0.853c1.054-1.759-0.134-4.487,0-6.393c4.581,0.422,9.254,0.596,13.819-0.091
		c1.854-0.279,3.69-0.71,5.45-1.364c2.362-0.878,1.613-1.828,1.613-4.085c-7.236,4.94-22.668,5.519-28.98-1.278
		c-0.569,2.367-2.871,1.341-3.106,4.378c-0.219,2.822-0.537,5.635-0.867,8.446c-0.714,6.088-1.545,12.171-1.994,18.287
		c-0.387,5.284-0.753,10.416-1.099,15.725c-0.166,2.543-0.754,5.092-2.736,6.863c-0.347,3.858-0.509,7.729-0.716,11.598
		c-0.348,6.483-1.494,12.382-2.693,18.662c-1.139,5.961-1.235,11.181-3.333,16.949c-0.969,2.665-0.756,5.523-1,8.3
		c-0.277,3.146-2.005,5.261-2.184,8.359c-0.386,6.69-1.227,13.382-0.728,20.091c1.762,0.028,1.752-2.001,3.41-2.131
		c0.202,3.546-2.746,4.506-5.681,4.913c-2.8,0.388-8.04-6.138-3.695-5.766c-0.045,1.741,0.191,2.618,1.705,3.41
		c0.741,0.387,0.592-1.231,0.852-1.279c0.915-0.162,0.076,1.398,0.457,1.632c1.084,0.666,2.209-5.799,0.396-7.172
		c-0.27,1.119-0.412,2.256-0.426,3.409c-0.525-1.288-0.6-2.601-0.222-3.939c0.385-3.94-0.227-0.637,1.86-2.732
		c0.741-0.744,1.038-2.622-0.377-2.884c-2.213-0.408-1.687,0.555-1.687-2.804c1.455,0.764,1.79-0.676,2.131-1.704
		c0.403,0.326,0.545,0.753,0.426,1.278c0.612-1.702-0.03-3.787,0-5.541c-1.679,0.701-2.033,2.68-2.131,4.263
		c-0.693-0.292,0.014-7.514,0.133-8.062c1.305-6.004,2.427-12.047,3.457-18.104c2.11-12.416,3.832-24.895,5.786-37.336
		c0.03,15.149-3.908,29.903-6.393,44.749c4.782,0.284,6.494-23.383,7.009-27.436c0.729-5.74,1.331-11.452,2.174-17.05
		c1.352-8.982-3.959,0.303-5.773,0.589c0.259-3.11,2.711-5.531,3.409-8.524c0.821-3.519,0.016-8.084,1.724-11.295
		c0.478-0.898,0.715-3.48,0.833-4.474c0.612-5.109,0.954-10.249,1.705-15.343c0.619-4.195,0.841-8.447,1.623-12.618
		c0.205-1.091,0.368-3.871,1.786-4.43c-0.638-1.647-1.25-2.768-0.443-4.579c1.471-3.302,4.945-5.008,4.821-9.029
		c-0.1-3.235-1.871-7.344,1.162-9.832c-1.04-0.657-0.928,0.396-1.474,0.77c0.391-0.268,0.375-1.399,1.9-2.049
		c0.304-1.96-0.678-4.243-2.983-2.983c-0.479-1.182,0.955-1.421,0.426-2.557c1.152,0.182,1.437,0.75,0.853,1.705
		c0.701-0.6,1.003,0.174,1.705-0.426c0.184-1.331-2.266-0.755-0.853-2.131c-0.73-0.022-1.299,0.262-1.705,0.853
		c-1.51-0.87,1.062-1.224,1.279-1.705c-0.866-0.608-0.397-0.88-0.853-1.705c-0.997,0.123-0.022,1.839-0.853,2.131
		c-2.69-0.333,2.359-2.509-3.122-1.876c-2.797,0.323-5.59,0.685-8.385,1.024c1.345,0.734-0.182,1.37,0,2.557
		c1.436,1.072,3.55,0.124,5.114,0.853c-2.777-0.885,1.596-1.301,2.131-1.278c-0.484,2.271,1.56,0.772,1.278,2.983
		c-1.151-1.281-2.065,0.538-2.983-0.852c-0.66,0.959-1.576,1.45-2.746,1.475c-3.087,0.655-1.457,2.366-2.368,4.918
		c4.257-0.577,7.706-3.842,11.933-4.688c-0.509,0.402-1.077,0.687-1.705,0.853c0.473,1.78,0.487,3.659-0.169,5.396
		c-1.14,3.02-3.917,5.052-6.65,6.537c2.797-3.736,6.58-5.812,6.393-11.081c-3.272,0.766-5.716,3.08-8.716,4.425
		c-3.121,1.399-1.11,1.451-2.24,4.224c-0.034,0.083-2.514,3.193-2.367,1.581c0.042-0.462,1.461-0.291,1.39-0.854
		c-4.967-2.289-8.988,2.205-11.691,5.793c-1.625,2.158-3.056,4.514-5.11,6.307c-0.959,0.768-1.893,1.565-2.803,2.391
		c-0.291,1.202,1.143,0.929,0.853,2.131c-1.28,0.193-1.065-1.139-2.131-1.279c-1.497,1.498-2.464,3.483-4.262,4.688
		c5.417,0.517,21.511-11.538,20.457-17.048c1.154,0.533,2.291,1.102,3.41,1.705c0.482-0.051-1.412-1.656-1.705-1.705
		c1.139-0.418,2.276-0.844,3.409-1.278c-1.855,4.062-0.366,2.986-4.262,2.131c0.104,2.243-1.578,3.795-1.705,5.967
		c0.25,0.549,2.354-0.685,2.983-0.426c-1.193-0.355-0.635-2.725,0.853-1.705c0.543-1.79-2.026-0.542-1.705-2.131
		c1.105-0.079,2.1,0.206,2.983,0.853c-2.383,5.089-6.017,10.626,2.503,6.126c4.826-2.548,8.139-6.973,10.708-11.667
		c-1.83,5.101-5.226,9.881-10.04,12.534c-2.318,1.278-5.564,0.93-6.212,3.62c-0.847,3.518-1.033,7.19-1.292,10.786
		c-0.462,6.423-2.344,12.533-3.263,18.92c-0.94,6.539-5.542,11.75-6.042,18.494c2.554,0.283,6.737-4.552,6.393,1.278
		c-3.047-0.381-5.546,2.511-8.523,1.705c-2.966-0.803-3.597-4.891-4.688-7.245c2.386-0.342,2.598,1.694,3.343,3.354
		c1.991,4.436,2.674-3.42,3.049-4.206c-1.799,0.322-0.563,3.317-2.557,3.409c1.329-4.645,1.912-7.231,3.288-11.567
		c0.934-2.94,1.466-5.997,1.915-9.044c0.436-2.956,1.825-2.554,2.468-4.96c-0.147-0.898-1.792,2.053-2.131,0.853
		c4.033-6.149,0.614-14.699,3.41-21.309c-2.713-1.264-8.513,0.03-10.783,1.259c-4.458,2.414-8.97,4.828-13.729,6.604
		c-5.174,1.93-10.711,2.464-15.976,4.071c-4.849,1.48-9.618,3.134-14.625,4.01c-8.121,1.419-28.146,5.801-32.052-4.941
		c-5.718-15.728,23.664-22.955,33.445-26.793c10.128-3.974,20.383-7.853,30.919-10.612c5.049-1.322,10.199-1.712,15.157-3.443
		c5.489-1.915,10.78-4.307,16.594-5.101c-23.202,0.245-46.292,2.984-69.468,3.835c19.398-2.112,38.868-3.63,58.387-3.835
		c-1.99-0.494-4.062-0.671-6.008-1.344c-2.682-0.926-4.579,0.031-7.424,0.529c-5.045,0.883-10.171,1.24-15.279,1.509
		c-10.596,0.559-21.385,0.489-31.808,2.715c0.48,0.443,1.049,0.585,1.705,0.426c-4.179,1.978-9.683,1.222-14.185,2.721
		c-5.087,1.695-10.793,2.098-16.123,2.107c-5.221,0.008-10.468-0.566-15.526-1.88c-4.449-1.156-8.761-4.045-12.98-4.226
		c-9.955-4.451-19.374-10.074-27.991-16.759c-7.481-5.803-5.569-17.476,3.448-21.076c8.163-3.26,16.373-6.223,25.21-6.593
		c11.3-0.473,22.624,0.701,33.854,1.809c11.665,1.151,23.243,4.142,34.775,6.205c5.824,1.042,11.658,2.034,17.506,2.936
		c2.459,0.379,4.92,0.743,7.385,1.088c1.623-0.186-0.284,1.157,1.278,1.279c0.374-0.358,0.231-0.5-0.426-0.426
		c6.663-1.781,14.022,1.874,20.815,1.792c7.177-0.086,14.66,2.492,21.804,3.749c-3.762,1.261-7.62-1.542-11.507-0.853
		c3.35,2.296,9.18-0.319,11.933,2.983c-6.831,0.39-13.271-2.67-20.031-2.983c1.962-0.448,3.968-0.468,5.967-0.426
		c-1.971-1.746-8.263,0.231-9.135-0.774c0.547,0.46,1.177,0.718,1.89,0.774c-3.165,1.847-11.366-1.571-14.871-2.007
		c-6.718-0.836-13.507-1.383-20.076-3.107c1.215-1.325,3.251,0.365,4.688,0c-5.16-1.322-10.51-1.169-15.769-1.705
		c1.027,2.626,7.461,2.375,9.557,2.721c0.655,0.108,4.387,1.673,4.823,0.792c0.398-0.805,3.115,0.708,4.044,0.726
		c4.509,0.089,9.125,0.874,13.449,2.142c1.489,0.437,5.974,1.1,8.188,0.438c-0.056,0.456-0.198,0.882-0.426,1.279
		c7.107,0.396,13.978,2.81,21.104,2.894c1.5,0.024,2.988-0.088,4.467-0.336c0.835,1.015,2.585,1.375,3.814,1.292
		c3.772-0.254,0.81-2.329,0.812-2.271c0.183,0.369,0.366,0.738,0.548,1.106c-0.739,0.571-1.612,0.671-2.618,0.299
		c-0.078-0.913,1.577-2.132,0-2.557c3.138-0.325,2.594-4.671,2.557-6.819c-1.205-1.658-8.472-2.092-10.52-2.743
		c-3.627-1.152-6.792-1.017-9.617-3.727c-2.563-2.458-4.515-5.48-5.85-8.762c-1.272-3.127-2.001-6.456-2.372-9.805
		c-0.439-3.964-5.118-7.056-7.505-10.379c-2.653-3.693-4.839-7.706-6.682-11.857c-1.571-3.539-5.135-4.773-6.892-8.131
		c3.219,0.082,3.482,4.361,6.819,4.262c-1.185-2.49-3.485-6.461-6.819-5.967c0.5,1.11,2.314-0.126,2.131,1.279
		c-3.975,0.078-6.206-2.413-9.376-4.262c0.863-0.917,1.857-1.059,2.983-0.426c-0.087-1.941-4.393-0.692-2.983-3.409
		c2.549,1.219,5.536,2.372,6.819,5.114c2.01-0.552,1.476-0.266,3.835,0.426c1.028,3.847,4.385,5.846,7.065,8.448
		c1.155,1.121,2.147,2.399,2.738,3.911c2.128,0.631,3.577,2.247,4.587,4.15c0.78,1.469,1.337,3.042,1.98,4.573
		c1.346,3.206,1.243,0.419,2.383-0.625c3.851,1.001,6.13,9.463,5.647,12.878c-0.279,1.978,1.06,1.753,1.179,4.094
		c0.127,2.499-0.739,5.387,0.419,7.747c1.006-2.127,1.554,1.377,1.727,2.048c0.875,3.4,1.23,1.603,3.814,2.214
		c0.522-1.368-1.375-0.336-0.853-1.705c1.911,0.305,3.017,1.644,5.114,1.278c-0.135-2.068-2.434,0.442-2.557-1.278
		c1.116-1.358,2.545,0.225,3.41,0.852c0.967-0.285-0.838-0.923-0.426-1.705c0.458,0.393,1.937-0.218,2.055,0.09
		c-0.236,0.356-0.353,0.752-0.351,1.188c1.022,0.327,1.96,0.051,2.983,0.426c0.295-1.152-0.801-0.732-1.278-1.278
		c0.393-0.71,5.176,3.57,6.819,3.409c0.507-1.245,1.189-12.978,4.262-6.393c0.403-0.327,0.545-0.753,0.426-1.279
		c1.419,0.15,2.266,1.354,3.629,1.533c2.959,0.389,1.781-2.189,2.764-3.664c-4.966,1.871-14.742,0.551-13.212-6.819
		c0.439-2.119,1.103-1.729,1.155-4.264c0.033-1.639,0.424-3.282,1.405-4.623c2.623-3.581,4.066-1.386,7.242-1.769
		c-0.437-1.166-3.114-1.833-4.083-2.906c-2.269-2.513-5.774-3.072-8.231-5.237c-1.947-1.716-4.484-2.613-6.947-3.281
		c-2.913-0.79-5.513-2.957-7.875-4.058c-2.037-0.949-4.3-1.131-6.514-2.18c-2.854-1.353-5.344-2.126-7.987-3.659
		c-3.375-1.958-8.963-2.194-9.931-6.807c9.017,2.596,16.789,5.875,25.527,9.421c2.033,0.825,3.207,2.513,5.372,2.513
		c2.66,0,5.065,2.22,7.407,3.46c4.275,2.264,12.568,4.58,12.836,10.177c0.911,0.071,0.278-1.738,0.426-2.131
		c0.491,1.071,2.193,0.01,2.131,1.279c0.371-2.248,5.965-3.902,6.819-1.279c1.96-3.485,7.007,1.253,9.153,0.017
		c1.846-1.062,2.839-3.223,4.203-4.771c1.819-2.066,4.209-2.134,6.132-3.765c4.966-4.209,12.633-5.832,18.504-8.285
		c7.198-3.009,14.111-6.705,21.675-8.767c0.02,4.331-5.118,4.917-8.098,6.393c-4.807,2.38-9.425,4.982-14.382,7.077
		c-2.84,1.201-5.718,2.319-8.639,3.31c-2.117,0.719-3.802,2.81-5.89,3.118c-4.681,0.691-8.294,6.073-12.004,8.657
		c0.264,1.351,2.518,0.872,3.331,0.825c1.745-0.101,1.507,0.663,2.794,1.639c1.742,1.323,1.646,6.55,2.913,8.708
		c4.348,7.402-9.132,8.657-12.874,8.433c0.294,5.316,4.477,1.965,7.28,1.207c4.483-1.212,3.865,4.312,3.801,7.317
		c3.348-2.125,8.949-1.955,12.593-0.887c1.444,0.423,3.651,2.513,3.647-0.347c-0.003-2.988,1.301-4.763,2.185-7.608
		c1.517-4.878,1.827-10.025,3.171-14.943c0.62-2.268,1.479-4.512,2.871-6.428c2.562-3.527,1.576,1.464,2.81,2.511
		c-2.202,0.42-3.374,2.609-3.66,4.646c-0.162,1.168-0.078,2.319,0.25,3.452c-0.517,0.15-0.942,0.434-1.278,0.852
		c-0.375,6.714-2.935,13.25-5.967,19.179c4.749-0.785,4.189-7.397,6.626-9.063c1.3-0.889,1.578-3.385,1.683-4.773
		c0.095-0.942,0.023-1.87-0.211-2.785c-0.695-1.591,1.457-0.199,1.279-1.278c-1.71,0.511-0.185-5.923-0.02-6.412
		c0.654-1.938,1.257-4.239,3.002-5.521c0.028-0.882-0.113-1.734-0.426-2.557c1.52-2.124,3.2-4.123,4.859-6.136
		c1.672-2.029,3.834-3.358,5.291-5.095c0.417-0.639,1.012-0.873,1.783-0.702c0.413-1.21,0.996-2.332,1.749-3.365
		c1.419-1.969,3.295-3.527,5.069-5.158c0.533,0.127,0.959,0.411,1.279,0.852c1.157-0.661,1.085-2.222,2.131-2.983
		c-1.561-0.444-0.678,1.598-2.131,1.279c0.368-0.929,3.931-4.702,3.835-1.705c0.687-1.903,3.018-2.232,4.688-2.557
		c1.288-1.842,3.318-2.923,4.688-4.688c-1.563-1.419-3.242,1.718-4.688,0.426c1.874-6.141,12.072,2.158,6.393,7.245
		c-1.772-1.223,0.662-3.511,0.426-5.114c-6.364,3.344-12.381,9.399-17.16,14.377c-1.34,1.395-2.869,2.604-4.575,3.522
		c-0.529,2.138-1.294,4.212-2.273,6.185c-2.111,4.255-5.176,7.897-8.295,11.441c-1.32,1.5-2.65,2.993-3.922,4.536
		c-0.026,2.172-0.258,4.345-0.753,6.462c-0.97,4.156-2.997,7.893-5.556,11.278c-2.756,3.646-4.4,5.157-8.71,6.69
		C216.818,70.396,211.294,70.247,208.206,73.348 M206.926,71.217c2.353,0.633-1.57,1.278,1.705,1.278
		C209.071,71.426,207.26,70.137,206.926,71.217 M162.604,110c-2.112-0.043-2.43,2.139-4.688,1.278
		c-3.211,2.335-6.703,4.26-10.28,5.968c-3.425,1.635-6.428,3.381-9.675,5.188c-1.625,0.905-3.39,1.63-4.822,2.85
		c-2.138,1.822-0.245,2.432,1.108,4.122c1.917,2.395,4.58,5.809,7.178,2.938c2.856-3.154,5.528-6.475,8.506-9.518
		C152.287,120.419,165.253,113.807,162.604,110 M108.478,119.376c-6.379,1.426-12.204,4.638-18.078,7.382
		c-5.914,2.762-12.293,4.647-17.932,7.976c-4.87,2.874-6.876,7.543-6.182,13.197c2.866,4.684,7.136,5.741,12.359,5.966
		c13.021,0.561,26.367-3.473,38.488-7.701c4.204-1.467,8.543-2.351,12.905-3.804c1.896-0.632,4.027-1.116,5.017-3.045
		c0.661-1.288,4.203-4.219,4.109-5.054c-2.687,0.035-4.335-1.498-5.693-3.63c-2.852-4.477-3.935-1.867-7.989,0.541
		c-1.925,1.143-3.867,2.286-5.596,3.719c-2.03,1.682-1.512,2.992-2.818,5.054c-1.455,2.297-5.288,6.503-8.163,6.675
		c2.435-4.391,7.134-4.715,8.365-10.118c1.074-4.713,9.95-6.594,12.944-10.339c-7.096-4.113-16.787,5.95-22.367,9.121
		c-3.836,2.18-7.769,4.189-11.548,6.47c-4.049,2.444-7.333,6.983-11.687,8.702c4.072-5.449,10.454-8.36,15.769-12.359
		c-1.774-0.406-2.915-1.708-4.375-2.657c-2.47-1.604-5.532,1.455-7.705,2.78c-4.653,2.837-9.672,6.005-15.196,6.696
		c7.914-3.213,14.97-8.038,22.312-12.326c3.716-2.17,7.53-4.186,11.527-5.791c4.714-1.894,9.508-1.883,11.763-7.028
		C115.402,118.956,111.835,118.625,108.478,119.376 M131.918,10.272C131.927,12.964,134.165,10.272,131.918,10.272 M236.333,41.384
		c2.568-3.061,5.177-6.095,7.309-9.487c1.134-1.805,5.07-6.843,4.625-8.839c-3.835,1.155-4.919,5.677-7.672,8.098
		c0.491-0.432-2.886,5.229-1.546,3.392c-1.57,2.153-3.854,5.018-4.42,7.689C234.669,40.684,236.294,42.174,236.333,41.384
		 M267.872,6.01c2.148-0.125,3.148-1.397,3.409-3.41C269.152,2.745,268.371,4.236,267.872,6.01z M258.921,12.403
		c1.625-0.08,2.805-0.605,2.983-2.131C260.184,10.256,258.906,10.683,258.921,12.403z M133.196,11.551
		c0.057,2.033,0.966,0.566,2.557,0.852C136.119,10.792,133.846,10.895,133.196,11.551z M136.606,14.108
		c0.731-0.04,1.441-0.182,2.131-0.426c0.146-1.565-1.645-1.327-2.557-1.705C136.034,12.752,136.176,13.463,136.606,14.108
		 M139.163,14.96c0.71,0,1.42,0,2.131,0c-0.325-1.04-1.035-1.607-2.131-1.705C139.163,13.824,139.163,14.392,139.163,14.96
		 M250.398,19.222c2.441-0.194,6.639-2.914,4.262-5.114C253.296,15.869,251.576,17.274,250.398,19.222z M142.146,16.239
		c0.988,0.635,1.84,0.493,2.557-0.426c-0.663-0.504-1.374-0.931-2.131-1.279C142.431,15.102,142.289,15.67,142.146,16.239
		 M146.834,17.943c0.426-1.278,0-1.705-1.279-1.278C145.479,17.595,145.905,18.021,146.834,17.943 M151.096,20.074
		c0.413-1.691-1.234-1.323-2.131-1.705C148.693,19.92,149.848,20.044,151.096,20.074z M154.506,20.5
		c0.601-1.361-2.55-1.077-2.557-0.426C152.452,20.565,153.455,20.557,154.506,20.5z M155.784,22.205
		c1.273-0.243,2.136,0.67,3.41,0.426c-0.107-1.815-2.077-1.955-3.41-2.131C155.784,21.069,155.784,21.637,155.784,22.205
		 M215.451,23.484c2.519,1.039,5.54-0.941,5.54-2.983C218.791,20.771,216.898,21.819,215.451,23.484 M146.408,43.515
		c0.398,5.878,2.022,11.499,4.311,16.903c0.427,1.009,2.545,2.247,2.508,1.849c0.407,2.407,1.532,3.241,3.836,3.836
		c-0.066,0.203-4.263-5.478-4.704-6.334c-0.821-1.593-3.612-10.372-2.115-10.713c-0.048,0.387,0.094,0.671,0.426,0.852
		c0-4.381-1.815,0.113-0.426-3.835C147.964,46.335,149.162,42.678,146.408,43.515 M148.965,43.515
		c-0.368-1.882-0.632-4.515-2.557-5.541c-1.528,0.438,1.2,2.439-0.426,2.983c-1.935-3.523-5.191-10.159-8.212-12.368
		c-2.583-1.889-2.898-6.062-6.704-6.384c1.73,4.544,5.073,8.11,7.526,12.238c1.491,2.508,1.272,1.239,3.128,2.678
		c0.6,2.542,2.361,4.316,4.262,5.967c0.177-0.758,0.603-1.326,1.279-1.705C147.358,42.48,147.926,43.19,148.965,43.515
		 M160.472,24.336c1.446,0.195,2.836,0.553,4.262,0.853c0.178-2.526-2.661-2.268-4.262-2.983
		C160.472,22.916,160.472,23.625,160.472,24.336 M210.762,26.467c2.523-0.158,4.262-1.177,4.262-3.41
		C213.085,23.444,211.12,24.277,210.762,26.467 M166.865,26.894c1.256,0.62,2.534,1.188,3.835,1.705
		c-0.664-1.856-2.736-2.351-3.835-3.836C166.865,25.473,166.865,26.183,166.865,26.894 M199.681,34.991
		c2.727-2.388,6.044-4.185,8.524-6.819C204.176,27.6,201.548,31.992,199.681,34.991z M172.406,29.45
		c0.023-0.733-0.328-1.092-0.853-1.278C170.944,28.794,170.927,29.822,172.406,29.45z M175.815,32.434
		c1.119,0.713,2.781,2.514,4.262,1.279c-2.156-1.739-4.19-4.332-7.246-4.262C172.939,30.854,174.814,31.796,175.815,32.434
		 M196.272,43.088c-0.854,1.078-2.336-0.516-3.409,0.426c1.088-1.049-1.855-2.565,0.874-3.388c2.011-0.606-0.192-4.133-0.022-5.136
		c-0.71,0.298-1.42,0.298-2.131,0c-0.167,1.432,0.771,1.845,1.279,2.983c-1.543,0.649-3.403,1.133-3.41-1.278
		c0.337,0.291,0.726,0.415,1.166,0.372c1.763-1.118-3.388-0.879-3.297-0.798c0.135-0.776-4.066-0.842-5.114,0
		c0.744-0.145,1.111,0.111,1.103,0.768c-0.273,0.534-0.641,0.562-1.103,0.084c0.388,2.179,3.705,3.136,2.557,5.541
		c4.259-0.741-0.132-3.808,2.997-4.104c1.071-0.101,1.607,1.244,2.487,1.747c0.378,0.216-2.316,3.925-3.779,3.636
		c0.101,1.338,1.632,1.373,2.557,1.705c0.52-4.555,2.384,1.158,3.836,1.278c0.341,1.332-2.311,0.998-1.152,2.944
		c0.02,0.033,0.425-1.624,0.726-1.665c1.871,2.005-1.223,2.648-1.279,2.983c1.12,1.173,1.657-0.454,2.789-0.172
		c1.766,0.44-0.219,0.714,0.621,1.877c0.849-0.737,1.559-1.589,2.131-2.557c-3.212-0.102-0.88-1.963,1.279-2.557
		c-0.464-0.295-0.606-0.722-0.427-1.278c-0.776-0.032-1.55-0.015-2.324,0.051C193,46.323,197.147,43.869,196.272,43.088
		 M189.027,33.712c-0.737,0.204-1.305,0.63-1.705,1.278c1.368-0.522,0.336,1.375,1.705,0.853
		C189.027,35.133,189.027,34.423,189.027,33.712 M199.255,39.679c0.382-1.375-1.39-0.599-1.705-1.278
		C197.422,39.523,198.141,39.799,199.255,39.679z M175.815,39.679c0.744,1.814,2.212,2.902,4.688,2.983
		C179.92,39.062,178.876,39.651,175.815,39.679z M187.322,52.464c0.69-0.668-2.188-2.487,0-2.983
		c0.166,0.628,0.45,1.196,0.852,1.705c-0.267-1.291,0.738-0.781,1.279-0.426c-0.023-1.088-0.548-1.44,0.426-2.131
		c-1.504-0.418-0.505-1.373-1.152-2.233c-1.217-1.616-1.798,1.708-2.684,1.807c-0.751-0.676-0.002-2.256-1.705-1.705
		c0,3.725-0.89,2.162-3.41,3.835c0.226-2.564-3.759-0.653-4.688-2.131c2.132-4.24-5.611-1.39-2.557,1.279
		c1.066-0.169,0.364-1.871,1.705-1.705c0.513,1.857-0.867,3.057-0.853,4.262c1.567-0.938,2.643,1.02,4.262,0
		c0.683,1.38-0.788,1.209-1.217,2.003c-0.803,1.485,3.358-1.164,3.348-1.15c0.328,0.519,0.47,1.087,0.426,1.705
		c0.73,0.022,1.298-0.262,1.705-0.853c-1.432,0.798-1.806-1.53-0.852-1.705C182.208,54.509,186.157,48.841,187.322,52.464
		 M189.453,46.072C189.004,48.545,191.3,46.25,189.453,46.072L189.453,46.072z M201.813,51.186c-0.427,0-0.853,0-1.279,0
		c-0.193,1.299,1.002,1.146,1.705,1.705c0.436-0.952,0.294-1.804-0.426-2.557C201.813,50.618,201.813,50.902,201.813,51.186
		 M192.437,55.021c0.284,0,0.568,0,0.852,0C193.68,54.402,192.682,53.886,192.437,55.021 M189.027,56.727
		c0.062-0.504,0.759-0.966,0-1.279C188.965,55.952,188.268,56.414,189.027,56.727z M190.306,57.579
		c0.092-0.309,0.234-0.593,0.426-0.852c-0.789-0.204-1.215,0.081-1.278,0.852C189.737,57.579,190.021,57.579,190.306,57.579
		 M195.419,56.3c-2.938-0.166-3.61,2.46-5.966,3.409c0-4.36-1.108-0.582-3.41-2.983c0.152,3.496,0.915,4.459,4.619,4.204
		c1.435-0.099,2.93,0.269,4.331,0.484c-0.163-1.145,1.802-3.283,0.852-4.262C195.333,58.405,194.564,56.678,195.419,56.3
		 M177.094,60.562c1.453-0.848,1.538,0.491,2.983,0.426c0.437-2.572-1.643-2.131-3.41-2.131
		C176.81,59.426,176.952,59.994,177.094,60.562 M338.192,60.988c4.346-1.066,6.547,0.722,9.377-1.279
		C344.322,60.015,339.63,58.875,338.192,60.988z M182.634,68.66c1.066,0.053,1.334,0.813,1.705-0.426
		C183.771,67.679,183.053,67.971,182.634,68.66z M184.339,66.529c-0.258-1.576,2.554,0.024,2.131-1.705
		c-1.876,1.186-1.204-1.646-1.278-2.557c0.397,0.229,0.823,0.371,1.278,0.426c-0.323-0.951-2.313-2.769-3.41-1.705
		c1.806-0.073-0.008,0.626,0,1.278c1.382-0.204,1.843,2.453,0.426,2.557c-0.535-1.698-1.47-3.182-3.409-3.409
		c0.159,0.656,0.017,1.224-0.426,1.705c0.104-2.447-3.339-2.289-3.41-0.853c1.942-0.265,2.762,1.326,4.262,2.131
		c-0.486-1.233,1.801-1.109,1.705-0.853c0.132,1.174-1.658,0.319-1.279,1.705c3.046-0.63,2.055,2.819,4.262,3.41
		C185.535,67.382,184.563,67.532,184.339,66.529 M186.47,68.66c0.814-1.125,0.473-3.19-1.195-2.048
		C184.955,66.831,186.344,68.681,186.47,68.66 M321.145,61.415c1.749,0.044,3.479,0.07,4.262-0.853
		C323.918,60.779,322.189,60.754,321.145,61.415z M335.635,61.841c-0.169-1.021,1.941,0.236,1.278-1.279
		C335.833,60.111,334.485,61.459,335.635,61.841z M306.228,66.955c0.072-0.924-1.512-0.193-2.131-0.426
		C304.026,67.453,305.609,66.722,306.228,66.955z M321.998,63.545c-1.343-0.519-2.479-0.235-3.41,0.853
		c1.666-0.667,4.896,0.119,5.967-1.705c-2.403,0.3-4.861-0.681-7.245-0.852c0.585-0.137,2.569,0.584,2.131-0.853
		c-0.556,0.157-5.684,0.551-5.54,1.278c0.477,0.156,2.503-0.524,2.557,0.426c-3.361-0.004-7.312,0.837-10.654,1.279
		c-2.29,0.303-9.739,3.799-11.507,1.278c0.14,2.42-2.646,2.563-2.983,4.688c1.382-0.004,2.714-1.646,4.553-1.946
		c0.914-0.149,7.198-2.355,6.954-0.611c2.664-2.149,6.204-1.716,9.376-1.705c0.596-1.555-1.177-0.795-0.853-2.131
		c1.692-0.393,1.721,0.733,2.558,1.705c-0.032,0.002,4.772-0.518,3.411-1.601c-0.346-0.276-1.809,0.313-1.707-0.53
		C317.364,63.476,321.117,61.141,321.998,63.545 M55.63,62.267c-2.726-0.516-5.367,0.618-8.098,0c0.266-1.27,1.48,0.072,2.059-0.111
		c-0.483,0.153-8.052-1.725-8.878,0.538c1.323-0.01,3.678-0.365,4.688,0.853c-0.974,0.105-2.224-0.316-3.148,0.071
		c0.835-0.35,7.928,1.133,8.689,2.486c-4.367-1.115-8.978-1.364-13.212-2.983c0.609-2.227-2.708-3.134-3.835-1.278
		c0.782,0.124,1.528,0.361,2.238,0.714c-1.209-0.894-8.848,0.704-11.188,0.564c-6.129-0.372-15.142,3.664-19.979,7.271
		c-5.939,4.429-4.518,12.793,0.63,16.839c5.035,3.957,10.549,7.556,15.88,11.086c5.437,3.599,12.122,4.327,17.652,7.426
		c5.416,3.035,11.88,3.963,18,4.169c8.733,0.293,30.625,0.89,31.318-11.417c-9.289-1.482-18.83-1.528-28.213-1.674
		c-3.539-0.055-7.933,0.178-10.57,0.822c-1.335,0.327-10.558,2.631-11.081,1.279c7.961-3.294,15.72-1.979,23.866-2.983
		c0.141-2.623-2.998-8.672-0.426-10.655c0.863,2.818,0.905,5.893,1.363,8.79c0.514,3.247,7.457,1.728,10.567,1.88
		c4.217,0.208,8.423,0.573,12.642,0.75c3.115,0.13,5.359-3.114,6.54-6.306c-2.522-0.823-4.333-2.691-5.966-4.688
		c-2.404,0.466-4.833,0.813-7.269,1.061c-5.135,0.522-10.731,0.851-15.745-0.635c11.622-0.835,27.405,1.04,37.504-5.967
		c-2.814-0.837-5.115-2.849-7.836-3.917c-3.402-1.336-5.117,0.092-8.359,0.508c-7.818,1.001-15.327-0.502-23.014-1.705
		c3.778-2.214,10.404,0.967,14.703,0.651c3.862-0.284,12.014,1.065,13.852-3.634c-7.54-1.143-15.067-2.375-22.611-3.493
		c-3.963-0.587-7.932-1.146-11.91-1.621c-1.281,1.411-0.333,5.033-2.983,5.114c0.616-1.487,1.063-4.523,0-5.967
		c7.679,0.826,15.47,1.23,23.014,2.983c-0.193-1.577-3.288-0.479-0.853-1.705c-1.101-0.138-2.95,1.287-3.835,0
		c0.393-0.147,2.202,0.485,2.131-0.426c-1.388-0.309-2.571-0.056-3.836-0.853c2.698-1.763,7.59,1.877,10.655,0.853
		c-0.229,0.397-0.371,0.823-0.426,1.278c1.766-0.042,5.416-0.076,6.188,0.265c0.836,0.369,4.155,1.892,5.319,1.014
		c-1.372-0.619-3.031-1.154-3.836-2.557c-1.542,0.467-3.493,0.459-4.262-1.279c-4.726,1.828-9.677-1.422-14.49-0.426
		c0.526-0.119,0.952,0.023,1.278,0.426c-1.348,0.125-3.416-0.714-4.688,0c1.225,1.21,4.184-0.234,4.688,1.705
		c-4.124-0.546-8.265-0.951-12.359-1.705c1.001-0.207,3.574,0.704,4.262-0.426c-0.973,0.057-1.826-0.228-2.557-0.852
		c0.692-0.129,1.338-0.02,1.937,0.328c0.924,0.018-0.755-2.054-1.983-2.085c-0.475-0.012-5.094,0.141-5.067,0.905
		C54.467,62.812,56.716,62.62,55.63,62.267 M79.071,67.381c0.734,0.245,1.25-0.009,0-0.426
		C77.253,66.349,78.297,67.124,79.071,67.381z M200.534,63.119c1.392,0.913,1.818,0.487,1.279-1.278
		C200.66,61.545,201.081,62.642,200.534,63.119 M327.963,62.693c1.14-0.282,2.663-0.178,3.41-0.852
		C330.304,62.192,327.704,61.012,327.963,62.693z M190.306,64.824c-0.312-0.917-0.881-1.627-1.705-2.131
		C188.601,63.498,189.137,64.816,190.306,64.824 M191.584,66.103c0.759-0.497,4.77-0.455,3.41,1.278
		c1.229,0.063,1.679-1.086,2.983-0.852c-0.412-1.599-1.573-2.667-2.983-3.41c-0.049,1.31-2.687,1.949-2.983,0.426
		c0.527-1.073,1.358,0.138,2.014-0.157c0.455-1.304-0.358-1.536-2.44-0.695C191.584,63.83,191.584,64.966,191.584,66.103
		 M306.228,63.545c1.058,0.062,2.068,0.08,2.131-0.853C307.6,62.929,306.589,62.912,306.228,63.545z M68.416,64.398
		c-1.811,0.524-2.573-2.515-4.262-0.853c0.656-0.159,1.225-0.017,1.705,0.426c-0.438,0.808-1.611-0.28-1.705,0.426
		C64.922,65.587,68.398,64.386,68.416,64.398 M190.731,68.66c-1.033-0.151,0.092-2.404,0-2.983
		c-0.585,0.053-1.011,0.337-1.278,0.853c-0.256-0.167-2.506-6.045-2.983-2.557c0.824,0.335,1.529,2.723,0.853,3.409
		C188.858,66.607,189.229,69.794,190.731,68.66 M325.833,64.398c2.041,0.193,3.386-0.308,4.263-1.279
		C328.18,63.051,326.747,63.465,325.833,64.398z M166.439,68.233c1.954-0.791,3.938-1.024,5.967-0.426
		c-1.102-0.206,0.116-2.216-0.853-2.557c-2.085,0.62-3.186-0.908-5.114-1.278c-0.104,2.418-4.628-1.098-4.688,2.557
		c2.035-0.542,2.632,2.116,4.262,1.278c-0.094-0.979,0.332-1.548,1.279-1.705C167.615,67.438,165.843,66.678,166.439,68.233
		 M157.489,66.955c1.123,0.128,1.398-0.59,1.278-1.705C157.644,65.121,157.668,66.14,157.489,66.955z M300.688,69.512
		c-0.696-1.591,1.457-0.199,1.278-1.279c-1.732-0.208-7.188,2.245-8.95,3.41c0.591,0.406,0.875,0.974,0.853,1.705
		c1.263,0.162,2.527,0.313,3.793,0.455c3.396,0.372,6.854,0.671,10.271,0.397c2.773-0.222,5.295-1.675,8.098-1.705
		c3.253-0.035,5.14,1.038,8.534,0.011c2.776-0.84,4.958-0.444,3.349-4.009c-0.493-0.875-0.76-1.814-0.802-2.821
		c-2.272-0.197-4.563-0.081-6.824,0.193C313.688,66.668,307.323,69.012,300.688,69.512 M180.077,67.381
		c1.671-0.442,2.22,2.803,0.055,0.827c-1.137-1.038-3.411-2.417-4.743-0.827c2.112-0.147,0.578,0.644,0,1.279
		c1.604,0.46,1.642-0.655,2.983-0.853c0.044,2.109-0.788,1.137-2.131,1.705c0.028,1.601,1.429,1.936,2.557,2.557
		c-0.308-0.148-1.541,2.221,0.426,2.557c-0.281-1.802,1.79-1.197,2.131-2.557c-1.533,0-2.809-0.589-3.835-1.705
		c2.788,1.044,0.908-0.919,2.557-1.705c1.958,3.693,1.396,0.587,2.557-2.131c-1.383,0.503-0.763-0.595-1.705-0.853
		C181.229,66.798,180.083,66.459,180.077,67.381 M220.138,66.529c-0.758-0.379-1.083-1.19-2.557-0.853
		C217.109,67.42,219.408,66.876,220.138,66.529z M293.016,65.676c-0.619,0.233-2.202-0.498-2.131,0.426
		C291.504,65.87,293.088,66.601,293.016,65.676z M210.336,66.955c0.794-0.059,1.424-0.281,1.704-0.853
		C211.286,66.2,209.907,65.673,210.336,66.955z M206.5,68.233c1.145,0.158,1.839,0.158,2.983,0
		c-0.076-0.593,0.437-2.137-0.853-1.705C209.545,68.801,206.737,66.907,206.5,68.233 M292.165,66.529
		c-1.144,0.733-4.199-0.191-3.41,0.426C289.178,67.328,292.445,68.141,292.165,66.529z M101.232,70.364
		c-2.238-0.274-5.569-0.324-7.245-2.131c0.454,0.503,2.703,0.958,2.983,0c-2.23-0.301-5.001-1.962-7.246-0.853
		c1.23-0.068,2.367,0.216,3.41,0.853c-0.393,0.148-2.202-0.485-2.131,0.426C93.952,68.933,98.35,71.916,101.232,70.364
		 M211.615,67.807c0.759-0.235,1.77-0.219,2.131-0.852C212.94,67.144,211.177,66.375,211.615,67.807z M286.198,68.233
		c0.878,0.374,1.914-1.105,0.853-1.278C286.948,67.563,286.348,67.674,286.198,68.233z M283.64,67.381
		c-0.042,0.015,0.034,0.387,0,0.426C281.303,69.464,286.658,66.375,283.64,67.381z M197.125,69.938
		c0.451-1.081-0.897-2.429-1.279-1.278C196.651,68.707,196.142,70.068,197.125,69.938z M296,68.66
		C297.62,69.838,297.873,67.096,296,68.66L296,68.66z M91.856,71.643c-1.744,4.497,2.566,4.023,6.263,5.457
		c1.059,0.411,7.186,5.581,5.937,0.993c-1.614-5.928-10.364-2.715-11.348-7.302c1.6,0.369,12.886,2.688,12.772,2.25
		c-0.426-1.654-13.182-2.551-14.89-2.507c-3.316,0.085-9.883-3.37-12.799-1.448C82.499,69.78,87.272,70.319,91.856,71.643
		 M100.38,68.66c-0.749,0.245-2.504-0.515-2.557,0.426C99.331,68.711,100.019,70.181,100.38,68.66z M286.198,69.512
		c1.225,0.088,2.165-0.108,2.557-0.853C287.53,68.571,286.589,68.768,286.198,69.512z M207.353,69.086
		C207.92,71.197,209.366,69.751,207.353,69.086L207.353,69.086z M184.339,69.512C181.609,69.02,183.403,70.814,184.339,69.512
		L184.339,69.512z M275.542,69.512c-0.361-0.362-1.216,0.309-1.278,0.426C273.862,70.686,275.837,69.807,275.542,69.512z
		 M274.264,72.495c2.245-0.542,5.804-0.354,7.245-2.557C281.421,69.628,274.93,71.567,274.264,72.495 M281.936,72.495
		c2.27-1.09,6.794-0.076,8.523-2.983C287.889,70.608,283.874,70.224,281.936,72.495 M270.428,70.791
		c0.972,0.119,1.603-0.103,1.705-0.853C271.339,69.997,270.709,70.219,270.428,70.791z M195.419,76.331
		c-0.236,1.727-1.948-0.223-1.713,1.696c0.135,1.104-0.101,1.397-1.219,1.236c-1.903-0.274,1.912-4.4,0.801-5.49
		c2.254,0.383,2.619-2.628,1.705-2.557c-0.309,1.464-1.447,0.229-2.131,0c-0.03,1.577-2.579,3.078-1.279,4.688
		c-0.054-0.623,0.23-0.907,0.853-0.853c-0.094,0.917-0.378,1.77-0.853,2.557c-1.661-0.316-1.332-2.731-1.278-3.835
		c-0.406,0.017-2.386,0.463-2.557,0.426c-0.318-0.775-0.745-1.485-1.279-2.131c-0.948,1.369-0.45,2.237-0.929,3.619
		c-1.124,0.801-1.031,1.459,0.278,1.976c0.718,0.941,0.793,1.917,0.224,2.929c-0.479-0.843-1.768-1.699-1.705,0
		c-1.265-0.8-0.03-2.06-1.705-2.557c-1.875,1.786,2.816,2.557-2.131,2.557c0.688,1.276-0.526,1.204-0.807,2.089
		c0.187-0.591,2.778,1.454,3.364,1.321c0.25-1.054-0.676-1.503-0.426-2.557c2.416-0.533,2.278,0.612,4.262,1.278
		c-1.347,0.292-2.511,4.553-0.853,4.688c0.135-0.635,0.419-0.776,0.853-0.426c-0.284,0.71-0.568,1.42-0.853,2.131
		c0.449-0.255,0.875-0.255,1.279,0c-0.224,1.003-1.196,0.854-0.853,2.131c1.979-1.16,1.482-0.105,1.705-1.705
		c0.814,0.802,0.957-0.222,1.705-0.426c1.267,0.885,2.362,1.995,3.835,2.557c-0.088-1.439-2.54-2.092-0.852-3.41
		c-1.281-0.193-1.065,1.139-2.131,1.279c0.577-2.774-1.607,0.323-2.131-1.279c1.201-0.164,1.679-1.543,2.983-0.852
		c-0.367-2.29,1.94-2.171,3.41-2.558c-3.667-1.75,4.971-3.704,2.604-5.288c-0.914,0.978-1.227,0.785-0.941-0.58
		c0.408-0.361,0.849-0.679,1.321-0.952C196.688,77.772,195.466,76.339,195.419,76.331 M256.791,73.348
		c3.655-0.441,5.982-0.997,8.523-1.705C261.659,71.396,259.158,72.305,256.791,73.348z M264.036,73.774
		c-3.998-0.028-10.164-0.098-13.212,2.983c0.195,0.03,3.648-0.493,3.562-0.491c2.828-0.08,5.444-1.552,8.254-1.873
		c2.897-0.331,8.982,0.216,10.771-2.75c-0.477,0.156-2.503-0.525-2.557,0.426c0.393,0.148,2.201-0.485,2.131,0.426
		C270.106,72.062,266.421,71.683,264.036,73.774 M279.378,72.495c0.806-0.189,2.568,0.58,2.131-0.852
		C280.451,71.579,279.741,71.863,279.378,72.495z M283.214,73.774c0.092-0.309,0.234-0.593,0.426-0.853
		c-2.134,1.863-5.12,2.561-5.114,5.967c4.325-1.094,8.073-3.701,12.419-4.735c2.984-0.711,2.584-2.818-0.555-2.409
		C287.895,72.069,285.653,73.233,283.214,73.774 M189.453,72.495c-0.438,1.432,1.326,0.664,2.131,0.853
		C191.883,71.872,190.09,71.819,189.453,72.495z M329.243,72.921c-2.394,0.302-4.149,1.439-6.666,1.399
		c-2.463-0.039-4.937-0.444-7.398-0.121c-4.266,0.559-7.124,2.016-11.66,1.546c-6.821-0.707-16.056-1.445-21.582,3.994
		c7.676,1.454,14.926,4.113,22.813,4.38c9.099,0.308,18.168-0.868,27.238-1.359c4.141-0.224,8.296-0.321,12.438-0.075
		c2.015,0.12,4.604,1.433,5.681-0.749c0.741-1.5,0.954-3.218,1.306-4.832C352.542,71.912,332.955,72.454,329.243,72.921
		 M104.642,74.2c-0.923,0.009-1.75-0.81-2.655-0.772c1.526-0.062,5.908,4.432,7.343,0.772C107.72,73.644,106.189,73.1,104.642,74.2
		 M103.79,75.052c1.087,3.312,4.348,4.771,6.48,7.265c1.386,1.621,1.127,2.379,2.945,3.341c2.463,1.303,5.579,0.688,8.616,0.563
		c11.045-0.455,22.125-0.834,33.102-2.219c-3.623-0.422-35.983-2.846-35.8-6.819c0.088-0.115,8.966,3.231,8.95,1.278
		c-2.466-0.149-3.288,0.312-1.705-1.705c-5.602,1.041-11.125-4.128-16.621-1.705c0.734,0.745,1.586,1.313,2.557,1.705
		C109.28,76.902,106.688,75.633,103.79,75.052 M272.559,74.626c1.131-0.006,2.51,0.237,2.558-0.852
		C274.025,73.819,273.084,74.015,272.559,74.626z M232.498,81.445c1.452-0.254,6.142,0.642,5.541-2.131
		c-0.057-0.022-2.806,1.156-3.836,1.278c-4.255,0.504-9.437,0.217-13.212,2.557C224.874,83.334,228.712,82.108,232.498,81.445
		 M226.958,83.576c11.299,0.069,22.529,1.515,33.815,1.883c2.168,0.071,4.339,0.098,6.508,0.041
		c4.452-0.118,3.759-0.879,6.137-4.312c1.226-1.77,3.226-1.585,4.153-3.408c0.763-1.498,1.13-3.604,3.086-4.006
		C262.934,77.962,244.769,79.835,226.958,83.576 M267.446,74.2c-4.934,1.871-10.414,1.523-15.343,3.409
		c5.225-0.207,10.222-1.667,15.343-2.557c-1.4,0.885,1.541,1.444,1.704,0.426C268.456,75.219,267.888,74.793,267.446,74.2
		 M270.428,74.2c-0.619,0.233-2.202-0.498-2.131,0.426C268.917,74.393,270.5,75.124,270.428,74.2z M142.573,76.331
		c0.402-1.983-3.903-1.47-4.688-0.853C139.461,75.749,140.422,76.635,142.573,76.331z M239.317,77.184
		c0.041,0.216-6.199,2.383-7.245,2.557c5.446-0.752,11.844-0.754,16.621-3.835C245.879,76.006,242.001,79.056,239.317,77.184
		 M220.565,79.314c-0.484-0.398-0.484-0.824,0-1.279c-4.428,0.049-10.978-0.234-12.379,4.903c-1,3.661,0.133,6.632,3.91,6.392
		c3.985-0.253,7.983-0.166,11.96,0.192c15.546,1.397,32.041,8.14,47.651,5.561c-0.42-3.276-2.894-5.277-4.262-8.097
		c-4.108-0.029-8.213-0.242-12.31-0.541c-7.793-0.569-15.566-1.108-23.37-1.497c-6.756-0.336-13.904-0.168-20.535-1.528
		c-4.444-0.912,0.701-2.477,2.355-2.796c3.397-0.655,6.91-1.366,10.388-1.31c-2.103,3.558-8.327,0.112-10.654,3.409
		c2.37-0.012,4.216-0.374,6.393-1.278c1.667,0.37,5.499,0.724,6.393-1.279c-0.392-0.336-0.817-0.62-1.278-0.852
		c1.03-0.617,0.737-2.336,2.131-2.557c-2.345-0.542-2.119,2.549-4.688,1.705c-0.134-1.013,1.229-0.421,1.279-1.278
		C221.897,76.997,221.083,77.901,220.565,79.314 M130.639,78.036c0.192,1.24-1.579,0.324-1.705,1.279
		c3.503,0.401,7.173,1.634,10.655,0.426c0.002,0.436-0.114,0.832-0.351,1.188c0.241,0.631,8.844,1.545,9.924,1.733
		c4.605,0.804,9.271,1.141,13.866,0.062c-12.131-1.357-23.949-5.056-36.226-5.114C127.934,78.075,129.651,77.446,130.639,78.036
		 M238.891,79.74c3.932,0.319,4.402-1.229,8.098-0.426C245.971,77.402,241.377,79.333,238.891,79.74z M277.248,79.74
		c-1.665,1.521-3.583,2.83-4.262,5.114c6.055,1.318,17.374,6.749,21.735-0.426C288.765,83.36,283.195,80.843,277.248,79.74
		 M106.773,80.593c-2.837-0.586-4.975,2.042-7.495,2.899c-3.481,1.184-7.182,1.563-10.832,1.789c3.692,8.653,16.764,2.502,22.588,0
		C109.609,83.906,108.959,81.044,106.773,80.593 M194.994,83.15c0.238,1.076,0.665,2.07,1.278,2.983
		c-0.393,0.148-2.202-0.485-2.131,0.426c1.514-0.175,1.811,2.447,0,2.131c0.204-0.789-0.081-1.215-0.853-1.278
		c0.694,0.695-0.296,3.113,1.279,2.983c-0.372,0.062,1.615-2.686,1.724-2.977c0.6-1.592,0.37-3.509-0.02-5.121
		C195.936,82.716,195.51,83,194.994,83.15 M167.292,84.854c-10.772,0.739-21.548,1.424-32.322,2.132
		c-5.38,0.354-10.76,0.713-16.138,1.089c-3.855,0.269-6.843,4.305-7.371,8.286c5.713,1.69,11.188,0.328,16.793-1.019
		c6.375-1.531,13.02-1.798,19.483-2.899c6.953-1.184,13.856-2.638,20.817-3.776c1.863-0.305,5.737,0.719,6.3-1.052
		c0.429-1.348,1.407-3.958-0.318-4.893c-0.175,2.292-4.626,1.985-5.967,1.279c0.393-0.148,2.202,0.485,2.131-0.426
		c-2.251-0.371-4.544-0.375-6.819-0.426c2.063,0.59-3.105,0.185-3.222,0.612C160.636,83.853,167.824,84.218,167.292,84.854
		 M176.241,86.56c-0.057,0.973,0.228,1.826,0.853,2.557c-0.028-0.645,0.256-1.071,0.852-1.279c0.455,1.357,3.792,5.671,3.836,5.541
		c-0.397-0.228-0.823-0.37-1.278-0.426c0.224,1.818,2.204,3.105,3.835,2.557c-0.719-2.097,1.856-0.917,1.705-2.557
		c-1.737-0.463-2.198-2.38-3.835-2.983c-0.412,0.781,1.394,1.42,0.426,1.705c-1.519-0.477-0.952-2.816-1.705-3.836
		C179.192,88.77,178.049,86.37,176.241,86.56 M179.651,86.133c-0.984-0.649-0.804-2.273-2.131-2.557
		c-0.072,0.245-0.403,3.092-0.426,2.983C177.571,86.403,179.597,87.084,179.651,86.133 M296,84.854
		c-1.006,2.858-6.319,2.318-4.351,5.927c2.274,4.17,4.323,4.8,8.956,3.96c5.062-0.917,10.312-0.632,15.435-0.564
		c6.957,0.092,3.583-3.93,5.531-8.897C313.117,85.738,304.383,86.383,296,84.854 M293.869,95.509
		c-1.104-1.451-2.338-2.804-3.336-4.335c-1.642-2.519-4.487-1.702-7.41-2.496c-4.376-1.189-8.926-3.438-13.546-2.118
		c0.158,2.005,0.982,3.709,2.038,5.377c2.056,3.249,2.257,2.942,6.029,3.688c4.728,0.935,9.106,3.139,12.39,6.705
		c-6.788-3.998-15.954-7.961-23.867-5.114c1.522,4.281,7.928,4.563,11.647,4.772c1.862,0.104,12.742,1.584,13.498,0.342
		c0.71,2.474,5.031,1.334,6.818,2.131C296.325,101.273,293.5,99.638,293.869,95.509 M198.83,91.248
		c1.538-0.425,1.628,0.897,2.983,0.853c1.422-0.9,0.629-3.706,2.557-3.836c-0.318-0.775-0.744-1.485-1.278-2.131
		C202.302,88.386,199.558,88.951,198.83,91.248 M95.266,90.395c-2.228,2.199-4.217,4.622-5.101,7.685
		c-0.679,2.354-3.324,4.42-3.423,6.806c5.706-0.187,9.879-3.235,14.679-5.87c2.101-1.153,4.328-2.04,6.703-2.43
		c3.615-0.594,4.709-5.524,6.321-8.749C108.378,84.77,101.547,90.729,95.266,90.395 M177.094,95.083
		c-2.666-3.462-2.841-2.925-6.408-2.156c-3.162,0.682-6.484,0.284-9.685,0.26c-4.578-0.034-14.29,2.054-16.724,6.584
		c2.497,3.248,8.418-0.182,11.507,2.131c5.872-0.31,11.287-3.168,15.769-6.819c-2.672,3.02-6.125,5.224-9.802,6.819
		c4.378-1.865,9.47-0.456,14.002-1.682c3.259-0.881,1.95-1.485,1.998-4.08c0.031-1.696,0.526-4.084-1.509-4.894
		C175.031,92.02,178.512,94.087,177.094,95.083 M121.263,102.329c5.696-0.581,11.54-0.562,17.121-1.965
		c4.635-1.165,7.551-4.519,11.859-6.133c4.109-1.54,8.486-1.765,12.819-1.643c2.6,0.073,9.236,0.775,9.769-3.045
		c-9.793,1.468-19.545,3.198-29.304,4.874c-5.062,0.869-10.126,1.728-15.198,2.541c-4.801,0.769-11.29,0.158-13.033,5.797
		C117.337,103.417,119.254,102.533,121.263,102.329 M194.567,97.64c0.001-0.986-1.729-2.016,0-2.557
		c-0.119,0.526,0.023,0.952,0.426,1.279c1.501-1.615-2.81-3.062,0-3.836c-2.415-0.175-4.86,0.594-7.245,0
		c0.575,1.362-1.971,6.536-2.983,5.541c-0.04,0.731-0.182,1.441-0.426,2.131c1.133-0.506,3.766-0.887,3.835-2.557
		c1.074,1.203,1.386,3.104,2.983,3.836c-0.731-0.04-1.441-0.182-2.131-0.426c0.584,2.71-1.349-0.181-1.705,1.279
		c1.649,1.424,3.069,1.402,4.547,0.711c4.009-1.873,1.097-1.506,1.845-4.121c-1.164-0.331-2.922,1.29-3.835,0
		C191.91,99.362,192.693,97.581,194.567,97.64 M200.96,94.657c0.657-1.287-2.206-1.122-2.131-0.426
		C199.324,94.588,199.972,94.793,200.96,94.657z M201.813,95.936c1.091-0.081,1.52,1.5,2.557,0.426
		c-0.427-0.824-0.995-1.534-1.705-2.131C203.188,95.599,201.29,94.567,201.813,95.936 M181.782,101.476
		c-0.458-1.544-1.444-4.789-2.557-4.262C180.757,97.954,179.375,101.61,181.782,101.476z M95.692,103.607
		c4.13,0.37,8.295-0.208,12.361-0.887c2.417-0.404,4.822-0.867,7.243-1.244c0.78-0.922,0.912-2.435,2.131-2.983
		C109.898,96.336,101.646,98.722,95.692,103.607 M196.698,98.919c0.592-0.076,2.136,0.437,1.705-0.853
		C196.982,97.498,196.414,97.782,196.698,98.919 M237.186,101.902c6.147-0.305,11.323,0.629,15.769,0
		C247.022,101.719,241.409,97.892,237.186,101.902z M180.503,103.181c0.022-0.733-0.329-1.092-0.853-1.278
		C179.628,102.635,179.979,102.995,180.503,103.181z M262.331,103.181c10.466-0.697,19.572,2.387,30.26,0.853
		C282.389,103.784,271.611,100.523,262.331,103.181z M198.83,103.607c-0.031,0.01-2.526-1.564-2.482-0.06
		c-0.048-1.625,0.192-0.257-1.354-0.367c-0.87,2.276,5.353,2.077,5.967-0.852C199.814,101.473,199.612,103.37,198.83,103.607
		 M256.791,102.329c-0.619,0.233-2.203-0.498-2.131,0.426C255.279,102.521,256.863,103.252,256.791,102.329z M261.052,102.754
		C257.401,101.327,258.208,104.203,261.052,102.754L261.052,102.754z M185.617,104.033c0.864,0.23,1.433-0.054,1.705-0.853
		C185.473,102.301,186.258,103.106,185.617,104.033 M137.884,110c-0.237,1.747-4.368,1.186-5.54,1.705
		c2.643-0.076-4.003,1.446-4.243,1.508c-2.902,0.748-5.642,2-8.542,2.753c-1.278,0.332-9.421,0.745-9.376,2.557
		c8.824,0.806,16.554-1.872,24.81-4.531c4.92-1.585,9.859-3.122,14.869-4.399c2.378-0.606,13.791-1.18,11.464-5.986
		C153.312,104.939,146.059,109.502,137.884,110 M191.584,104.459c0.733,0.023,1.092-0.328,1.279-0.853
		C192.193,103.647,191.385,103.55,191.584,104.459z M181.782,106.164c-0.236-0.759-0.219-1.77-0.853-2.131
		C180.279,104.644,180.514,106.255,181.782,106.164z M195.419,105.312c-0.576-0.134-0.813-0.606-1.705-0.426
		C193.032,106.072,195.556,106.064,195.419,105.312z M200.534,105.738C198.342,106.768,202.001,106.839,200.534,105.738
		L200.534,105.738z M179.651,110.852c1.759-0.338,3.459-0.011,5.114-0.852c-1.772-1.645-4.597-1.589-5.967-3.836
		C179.056,107.824,178.62,109.376,179.651,110.852 M120.411,119.376c-1.548,2.478-3.187,4.577-2.131,7.671
		c3.193-0.455,5.485-3.037,8.888-2.437c4.284,0.756,6.458-1.05,9.899-3.357c8.459-5.675,18.458-9.058,27.241-14.237
		C149.504,110.511,135.041,115.246,120.411,119.376 M216.303,107.869c-0.006-0.022,3.895,1.521,3.409,0.426
		C218.772,107.646,216.088,107.011,216.303,107.869z M202.665,110.852c-0.706,0.843-0.11-1.629,0.427-1.705
		c-2.564,2.204-4.74-0.86-7.246-0.853C196.849,110.888,200.251,113.733,202.665,110.852 M250.824,124.49
		c4.438-2.372,9.082,0.852,13.639,0c2.367-5.414-7.012-6.686-9.949-7.392c-3.169-0.761-34.376-7.914-34.375-7.951
		C230.295,114.404,240.725,119.118,250.824,124.49 M186.47,111.705c1.243,0.626,1.243-1.905,0-1.279
		C186.47,110.852,186.47,111.278,186.47,111.705z M184.339,115.966c0.023-0.733-0.328-1.092-0.853-1.278
		C183.463,115.421,183.814,115.78,184.339,115.966z M198.403,116.393c-0.063-0.568,1.733-1.286,0.427-1.705
		C198.893,115.255,197.096,115.974,198.403,116.393z M179.225,122.785c0.596,0.366,2.925,0.182,2.928,0.692
		c-0.31-0.341-0.575-0.714-0.797-1.118c1.711-0.435,3.386,0.576,5.112,0.328c3.484-0.5,0.379-2.514,2.133-4.164
		c-1.382-0.504-0.763,0.594-1.705,0.853c-2.503-0.493,0.161-2.074-0.853-2.983c-1.492,2.881-2.449-0.039-3.409-0.853
		c-0.708,1.77-3.551,0.781-4.262-0.426c-0.695,0.21,0.341,2.619-1.278,1.278c0.289,1.673,0.019,3.469,0.426,5.114
		C178.49,119.459,178.652,122.435,179.225,122.785 M197.55,117.245c-3.491,0.887-1.393,3.897,0.853,4.688
		c-0.027-0.645,0.257-1.072,0.853-1.279c0.433,3.818,10.146-0.609,6.393-3.835c-0.044,0.794-0.47,1.078-1.278,0.852
		c2.399-3.852-3.087-0.867-4.688-2.131c0.313,1.64-2.018,0.917-1.704,2.557c0.568-0.201,0.994-0.059,1.278,0.426
		c-0.119-0.526,0.022-0.952,0.426-1.278c-0.147,0.393,0.485,2.202-0.426,2.131C198.006,118.672,197.577,118.852,197.55,117.245
		 M158.341,118.95c1.731,0.032,3.088-1.015,2.983-2.983C160.207,116.569,157.013,117.315,158.341,118.95z M316.883,139.407
		c-2.912-7.795-15.995-11.939-22.831-14.501c-7.717-2.892-22.736-10.717-30.869-5.53c2.957,3.75,8.026,4.714,12.309,6.137
		c5.061,1.682,8.849,5.273,13.682,7.305c4.477,1.882,8.592,4.303,13.206,6.157c4.172,1.676,10.399,3.016,13.225,6.825
		c-7.28-3.136-14.416-5.912-21.474-9.517c-3.065-1.566-6.581-3.442-8.122,0.662c-1.021,2.722,5.047,4.336,7.45,6.15
		c2.859,2.158,4.535,4.491,6.47,7.405c1.688,2.545,6.557,1.402,9.098,0.757C314.582,149.845,319.143,145.458,316.883,139.407
		 M264.462,125.769c3.304,2.537,6.85,4.738,10.436,6.848c3.745,2.204,8.571,7.459,11.048,1.993
		c2.325-5.131-16.697-10.137-20.632-11.398C265.461,124.222,265.177,125.074,264.462,125.769 M116.149,124.064
		c-2.34,1.646-23.001,8.125-18.889,11.431c1.342,1.079,2.977,1.68,4.398,2.633c2.608-1.852,5.376-3.461,8.129-5.083
		C111.132,132.254,122.671,125.821,116.149,124.064 M207.353,125.769c1.124,0.13,1.099-0.89,1.278-1.705
		C207.255,123.683,208.033,125.454,207.353,125.769z M253.381,125.769c2.621,1.596,5.063,3.458,7.591,5.194
		c3.798,2.608,4.483,2.362,8.604,0.346c-3.96-5.426-10.68-6.8-17.048-6.393C252.474,125.539,252.758,125.823,253.381,125.769
		 M178.798,128.326c0.028,0.882-0.114,1.734-0.426,2.557c1.583-0.509,1.644,1.469,3.145,0.935c2.535-0.903,0.72,1.799,1.97,2.049
		c-0.199-0.6-0.021-1.1,0.535-1.5c1.176,0.093,1.424,0.877,0.744,2.353c0.585-0.052,1.012-0.336,1.278-0.853
		c0.298,0.71,0.298,1.42,0,2.131c1.503,0.544,2.174-0.925,2.983,0.853c0.785-2,2.828-1.331,4.457-1.522
		c0.937-0.083,1.582-0.57,1.936-1.461c0.874,0.384,1.726,0.811,2.558,1.278c-0.255-1.107,0.171-1.533,1.278-1.278
		c0.069-2.207-0.674-1.22-1.278-0.853c-1.773-1.653,0.345-1.943,0.785-1.874c1.662,0.261,0.212,2.662,1.346,2.726
		c1.31-0.971,2.951-1.656,3.409-3.41c-0.907-0.684-1.902-0.826-2.983-0.426c0.264-2.293,0.198-1.016,1.705-1.279
		c0.118-0.574,0.26-1.143,0.426-1.705c-3.829-0.937-8.056,0.971-11.933,0.852c0-0.284,0-0.568,0-0.852
		c-1.665,0.507-7.177,0.266-8.404-0.521C180.733,125.503,180.832,127.866,178.798,128.326 M264.888,135.145
		c-3.366-2.715-7.603-6.159-11.369-8.26c-3.585-2-6.635,6.254-10.366,6.982c1.774,4.592,7.616,7.405,11.781,8.637
		c7.411,2.192,14.729,4.725,22.313,6.279C273.163,144.074,266.662,141.645,264.888,135.145 M208.631,129.604
		C210.614,129.604,208.631,125.531,208.631,129.604 M145.129,135.997c3.581,0.808,7.688-0.075,11.081-1.278
		c-0.911,0.071-0.278-1.738-0.426-2.131c-1.604,0.101-0.953,2.456-2.557,2.557c0.039-1.227,0.609-3.449,0-4.688
		c0.631-0.034,1.363-1.429,1.102-1.976C154.387,128.604,146.086,134.979,145.129,135.997 M270.855,132.162
		c-3.745,1.431-6.502,1.991-3.264,6.169c2.211,2.852,5.316,4.776,8.064,7.045c1.376,1.136,2.681,2.375,3.723,3.833
		c2.139,0.462,4.289,0.873,6.449,1.222c4.635,0.749,9.314,1.205,14.008,1.335C293.403,141.512,280.716,138.039,270.855,132.162
		 M168.57,179.895c-0.127-0.924-0.853-3.714-0.146-4.408c1.726-1.693,0.462-0.93-0.28-2.837c3.25-2.042-0.598-7.165,1.705-9.803
		c-0.119,0.526,0.023,0.952,0.426,1.279c0.393-1.7-0.04-4.193,0.229-6.083c0.416-2.929,0.454-5.932,1.049-8.834
		c0.473-2.3,2.837-16.145,0.426-16.621c-0.063,0.226,0.543,2.5,0.487,2.524c-4.282,1.86-4.31,19.904-4.578,25.139
		c-0.445,8.663-4.767,17.884-3.581,26.463c5.402-0.227,0.964-5.238,3.409-7.246C167.852,180.103,168.136,180.244,168.57,179.895
		 M152.801,150.914c-0.805,1.276-1.671,4.504,0,5.541c1.835-1.062,2.248-11.743,1.279-13.212c1.816-0.11,0.432-5.151,1.705-7.245
		C152.346,135.997,152.835,147.697,152.801,150.914 M187.749,144.521c2.732-0.635,0.449-1.135-1.279-1.705
		C186.396,143.884,187.424,143.851,187.749,144.521z M187.749,147.078C185.279,145.849,186.626,148.13,187.749,147.078
		L187.749,147.078z M180.077,159.863c-0.553,0.86-1.321,2.289,0,2.983c-0.028-0.645,0.256-1.071,0.852-1.278
		c0.111,2.081-2.448,4.123-3.409,1.705c0.24,2.792,2.318,4.738,1.705,7.671c1.279-1.3,2.822,0.145,3.41,1.278
		c-0.771-0.134-1.481-0.417-2.131-0.852c-0.56,1.646,0.547,1.247,1.278,2.131c-1.837,2.067,0.366,4.739,2.557,5.114
		c-0.119-0.526,0.023-0.952,0.426-1.279c-0.009,0.39,0.853,3.171,1.705,1.705c-1.193-1.7-1.701-3.998-0.853-5.967
		c-1.729-0.423-0.129,2.39-1.705,2.131c0.935-1.503-0.952-2.569-0.426-3.409c2.504,0.789,8.417,1.084,8.098-2.983
		c-3.617,0.28-7.277-0.34-10.229-2.557c1.866-0.48,2.083,1.573,3.836,1.278c0.149-1.926-0.554-4.076-0.853-5.967
		c2.638,0.634,5.167,0.047,6.393-2.557c-1.007-0.346-11.437-2.3-7.245-4.688c-0.084,0.565-0.042,1.12,0.127,1.665
		c0.06,0.101,0.299-3.135,0.299-3.369c0.346-0.038,1.597,1.342,1.705,0.426c-2.007-1.236-4.223-2.086-6.393-2.983
		c-0.091,0.994,0.615,3.701-1.279,3.409c0.137-0.8-0.116-1.435-0.759-1.905C176.973,151.448,178.162,158.481,180.077,159.863
		 M205.648,153.897c-3.425,1.841-6.908,3.79-10.844,3.968c-5.072,0.23,0.188,3.107,2.691,2.992c2.332-0.106,4.565-0.809,6.874-0.994
		c0.173-1.01,4.604-7.825,1.278-7.245C205.648,153.045,205.648,153.471,205.648,153.897 M231.646,164.552
		c0.321-0.939-0.703-6.872-1.705-6.819C229.1,159.805,230.279,162.949,231.646,164.552 M149.818,165.83
		c2.295-0.8,2.902-7.227,1.705-7.671C150.858,160.62,150.205,163.092,149.818,165.83z M192.437,169.239
		c0,3.269,1.379,2.324,4.164,2.215c2.661-0.104,4.149,0.324,5.624-1.382c1.882-2.175,2.92-0.329,4.025-3.835
		c0.767-2.436,1.938-5.03,1.529-7.652C207.488,165.277,197.687,168.145,192.437,169.239 M185.617,163.273
		c0.116-0.581-0.264-1.664-0.426-0.853C185.075,163.001,185.455,164.084,185.617,163.273z M233.35,170.519
		c-0.129-1.86-0.442-3.535-1.278-4.688C231.733,167.498,232.216,169.25,233.35,170.519z M207.779,167.108
		c0.309,0.093,0.593,0.235,0.853,0.427c0.204-0.789-0.08-1.216-0.853-1.278C207.779,166.541,207.779,166.824,207.779,167.108
		 M148.113,170.944c0.568,0,1.137,0,1.705,0c-1.312-1.194,2.12-3.431-0.426-4.262C149.769,168.54,147.966,169.196,148.113,170.944
		 M217.582,168.813c0.676-0.638,0.313-1.743-0.427-2.131C216.48,167.32,216.841,168.426,217.582,168.813z M177.094,178.616
		c0.845,1.615,2.506,2.612,3.128,4.372c1.019,2.885,0.295,1.203,1.986,0.742c-0.181,1.812,1.07,3.977-0.426,5.54
		c-0.616-1.302,0.717-3.352-1.278-3.836c-1.144,3.739,1.877,4.819,3.835,7.245c-0.054-1.52,0.137-1.105,0.853-0.426
		c-0.028-0.132-0.448-3.576-0.853-3.409c-1.057,0.434,1.435,2.291-0.853,2.131c0.407-2.442-0.612-4.893,0-7.245
		c1.533-0.105,0.577,3.517,0.923,4.259c-2.202-4.728,6.797-3.364,8.879-3.833c6.353,1.235,14.821-2.691,14.446-9.474
		c-0.135-2.436-6.319,3.309-7.334,3.787c-3.23,1.523-6.877,2.338-10.45,2.306c-3.399-0.03-7.014-0.914-9.448-3.438
		c-1.468-1.521-1.834-3.668-3.41-5.114c-0.21-1.585-0.169-4.067-1.705-5.114C175.896,170.96,176.954,174.715,177.094,178.616
		 M208.631,171.371c-0.049-1.088-0.08-2.193-1.278-2.132C207.269,170.46,207.3,171.565,208.631,171.371z M146.834,176.059
		c1.971,0.642,3.247-3.306,1.278-3.836C147.691,173.506,146.605,174.125,146.834,176.059z M188.601,173.075
		c0.568,0.284,1.137,0.568,1.705,0.853c0.127-0.516,0.249-1.032,0.365-1.55C190.726,173.729,188.7,171.791,188.601,173.075
		 M235.481,176.059c0.766-1.182-0.626-3.154-1.704-3.836C234.274,173.572,234.115,175.578,235.481,176.059z M146.408,179.468
		c0.213-0.546,1.079-2.548,0.426-2.557C146.763,177.599,145.404,179.108,146.408,179.468z M186.47,186.287
		c0.758,0.636,2.811,0.616,2.557-0.426C189.02,185.21,185.869,184.927,186.47,186.287z M186.47,190.549
		c-0.329-1.091-0.425-2.416-1.278-2.983C185.682,188.496,185.276,190.322,186.47,190.549z M187.322,192.68
		c0.117-0.574,0.259-1.143,0.426-1.704C186.115,190.976,185.835,192.477,187.322,192.68 M177.52,208.875
		c-0.812-0.769-0.679-4.695-1.279-4.262C176.374,206.328,176.022,208.526,177.52,208.875z M189.879,211.006
		c-0.416,4.759,1.129,0.055,0.852-0.426C190.638,210.912,190.375,211.075,189.879,211.006z M207.353,213.137
		C209.361,213.137,207.353,211.129,207.353,213.137 M183.06,214.842c0,1.232,0.806,3.333,2.131,1.278
		c-0.838,0.287-0.231-1.979-0.533-2.113c-0.495,0.478-0.638,1.092-0.429,1.843C183.574,215.931,183.184,215.595,183.06,214.842
		 M179.651,219.53c0.068-0.297-0.149-2.48-0.426-1.279C178.85,219.874,179.453,220.386,179.651,219.53z M183.06,218.678
		c0.426,0,0.853,0,1.279,0C184.414,217.63,183.06,217.233,183.06,218.678 M209.058,228.906c0.115-0.581-0.265-1.664-0.427-0.853
		C208.515,228.634,208.895,229.717,209.058,228.906z M197.125,230.61c0.717-0.919,1.569-1.061,2.557-0.426
		C200.618,226.08,195.733,229.545,197.125,230.61 M160.046,231.89c-0.408-0.794,1.276-1.425,0-1.705
		C159.921,230.446,158.986,231.825,160.046,231.89z M182.634,236.577c0.522-0.447,4.116,0.407,3.409-0.853
		c-1.12,0.927-3.268-0.975-4.262-1.278C181.458,235.782,183.229,235.022,182.634,236.577 M195.846,245.527
		c-0.778-0.183-1.935,0.653-2.557,0c1.967,3.378,4.871-1.762,6.819-2.131c-2.233-0.414-0.076-2.204,0-3.41
		c-2.958-0.11-0.157-3.455-2.131-4.262c0.176,2.354-0.831,0.193-1.705,0c0.004,1.909,2.686,4.855,0.426,6.394
		c0.124-2.393-2.124-0.312,0-2.983c-0.946-0.126-0.333-1.579-1.279-1.705c0.159,0.656,0.017,1.225-0.426,1.705
		c-0.736-1.498-2.905,1.164-4.262-0.427c0.064,1.131-1.28,1.043-1.278,2.131c1.028-0.435,2.615,1.124,1.278,1.705
		c-0.514-1.993-2.785,2.503-2.092,2.979c0.39-0.139,0.661-0.422,0.814-0.848c-0.477,3.131,1.771,1.974,3.41,2.558
		c0-1.562,0-3.126,0-4.688c-1.504,0.393,0.652,3.442-0.853,3.836c-1.527-1.309,0.052-3.868,1.278-4.688
		c-0.06,0.671-0.031,1.337,0.085,2c0.022,0.062,0.104-2.772,0.341-2.853c0.151,1.036,1.843,1.451,1.305,2.608
		c-0.696,1.496-1.496,1.865,0.4,0.375C195.748,244.341,195.89,244.909,195.846,245.527 M153.653,248.084
		c4.402,1.023,3.495-5.175,4.183-7.574c0.827-2.885-1.856-3.965-2.477-0.395C154.9,242.754,154.654,245.576,153.653,248.084
		 M207.353,238.708C209.361,238.708,207.353,236.7,207.353,238.708 M227.81,237.855C227.467,240.436,229.763,238.14,227.81,237.855
		L227.81,237.855z M231.219,247.658c0.518-2.14-2.297-8.098-3.409-8.098C228.781,241.894,227.89,247.004,231.219,247.658
		 M186.47,254.903c1.438,1.664,3.938,0.846,5.114,3.836c-0.789-0.204-1.215,0.08-1.278,0.853c1.373-0.31,2.015,0.331,1.705,1.704
		c2.548-0.561,0.469-4.045,3.409-3.835c0.177-2.782,4.192-2.387,3.836-5.541c-1.268,1.311-2.729-1.749-4.262-1.705
		c0.591-0.701,1.301-0.843,2.131-0.426c-0.989-4.678-7.629-0.138-10.229-2.983c0.444,0.994,0.444,1.989,0,2.983
		c1.67,0.155,6.564-1.592,7.245,0.853c-2.738-0.909-5.367,1.287-8.098,0.426c-0.067,1.306,1.485,0.26,1.705,1.705
		c-0.515-0.086-1.016-0.224-1.502-0.413C186.402,252.319,186.77,255.25,186.47,254.903 M232.072,256.608
		c0.28-3.264-0.578-5.389-2.131-6.819C230.248,252.466,228.872,256.825,232.072,256.608z M232.072,262.148
		c-0.075-1.345-0.3-2.542-1.705-2.557C230.358,261.021,230.367,262.433,232.072,262.148z M192.863,283.884
		c-0.173-1.269,0.413-5.498-0.426-4.688C193.058,281.213,191.019,283.242,192.863,283.884z M189.453,284.311
		c0.125-0.262,1.06-1.641,0-1.705C189.861,283.399,188.177,284.03,189.453,284.311z M192.863,286.867
		c0.068-0.297-0.149-2.48-0.426-1.278C192.062,287.211,192.665,287.724,192.863,286.867z M192.863,288.998
		c0.116-0.58-0.264-1.663-0.426-0.853C192.32,288.727,192.7,289.81,192.863,288.998z M196.272,297.522c0,0.284,0,0.567,0,0.852
		C196.889,298.765,197.41,297.768,196.272,297.522 M192.437,302.21c0.116-0.58-0.264-1.664-0.426-0.853
		C191.894,301.938,192.274,303.021,192.437,302.21z M192.01,305.193C190.848,307.356,193.498,306.78,192.01,305.193L192.01,305.193z
		 M192.01,311.586c0.094-0.798,1.099-2.824,0-3.409C192.256,309.315,190.75,310.84,192.01,311.586z M119.984,13.682
		c0.876,0.696,1.871,1.122,2.983,1.278c-0.229-0.415-1.552-3.53-2.557-2.557C122.041,13.019,120.456,13.111,119.984,13.682"/>
	<path style="fill-rule:evenodd;clip-rule:evenodd;" d="M231.219,55.021c0.418-1.287,0.87-2.539,1.278-3.835
		C232.999,51.715,232.385,54.746,231.219,55.021z"/>
	<path style="fill-rule:evenodd;clip-rule:evenodd;" d="M114.018,8.994c-0.418-2.366-3.27-2.845-3.836-5.114
		c-1.262,0.57-0.852,2.534-2.557,2.557c2.431,0.326-0.156,3.603,2.131,4.262c-1.128,0.847-1.799-0.419-2.226-1.241
		c-1.081-2.077-1.105-2.062-0.04-4.373c1.431-3.102,7.811-6.036,6.954-0.353c-0.648-1.125-2.458-0.653-3.41-1.278
		c1.171,1.888,2.232,3.925,4.688,4.262c-1.519,1.5-0.23,2.808,0.426,4.262c-2.218-1.567-4.681-3.03-5.967-5.54
		C111.69,7.167,112.123,8.886,114.018,8.994"/>
	<path style="fill-rule:evenodd;clip-rule:evenodd;" d="M50.516,64.398C49.27,63.831,53.277,65.653,50.516,64.398L50.516,64.398z"/>
	<path style="fill-rule:evenodd;clip-rule:evenodd;" d="M210.336,114.688c1.566-0.212,5.203,3.223,3.836,5.966
		C212.898,118.661,212.567,115.724,210.336,114.688z"/>
	<path style="fill-rule:evenodd;clip-rule:evenodd;" d="M226.105,123.211c-2.135,3.349-4.61-1.217-3.409-1.705
		C223.962,122.23,224.251,124.344,226.105,123.211"/>
	<path style="fill-rule:evenodd;clip-rule:evenodd;" d="M226.105,126.195c-1.67-0.287-1.037,1.795-2.557,1.705
		c0.344-6.771,12.202,3.495,11.933,5.114C231.712,131.636,229.819,127.658,226.105,126.195"/>
	<path style="fill-rule:evenodd;clip-rule:evenodd;" d="M203.944,189.271c0.766,0.571,0.497,2.026,1.704,2.131
		c1.273-0.811-1.207-1.462-0.853-2.557c1.138-0.159,1.809,1.773,1.705-0.427c0.131-0.051,0.424,4.739,0.36,4.708
		c-0.379-0.362-0.641-0.795-0.786-1.298c-1.54,0.747-0.754,3.843-0.853,5.114c0.769-0.364,1.172-3.206,1.222-3.059
		c0.367,1.078-0.084,2.371,0.057,3.484c-2.096-0.871-0.44,2.155-2.131,1.705c0.59-2.401,0.729-3.546-1.251-4.29
		c-2.186-0.821-0.085-2.809,1.677-2.104C204.795,190.635,203.156,191.484,203.944,189.271 M203.944,194.385
		C205.95,194.385,203.944,192.377,203.944,194.385"/>
	<path style="fill-rule:evenodd;clip-rule:evenodd;" d="M203.517,196.516C204.605,193.067,202.778,199.333,203.517,196.516
		L203.517,196.516z"/>
</g>
</svg>
