<?xml version="1.0" encoding="utf-8"?>
<!-- Generator: Adobe Illustrator 16.0.4, SVG Export Plug-In . SVG Version: 6.00 Build 0)  -->
<!DOCTYPE svg PUBLIC "-//W3C//DTD SVG 1.1//EN" "http://www.w3.org/Graphics/SVG/1.1/DTD/svg11.dtd">
<svg version="1.1" id="Layer_1" xmlns="http://www.w3.org/2000/svg" xmlns:xlink="http://www.w3.org/1999/xlink" x="0px" y="0px"
	 width="100px" height="100px" viewBox="0 0 100 100" enable-background="new 0 0 100 100" xml:space="preserve">
<a id="anchor" xlink:href="/" >
	<g>
		<rect fill="#16738F" fill-opacity="0" width="100" height="100"/>
		<path fill="#16738F" d="M50,4.008C24.6,4.008,4.008,24.6,4.008,50S24.6,95.992,50,95.992S95.992,75.4,95.992,50
			S75.4,4.008,50,4.008z M81.904,76.074c-3.115,3.952-7.006,7.196-11.566,9.644c-4.894,2.627-10.586,4.345-16.92,5.105
			c-0.052,0.007-0.104,0.01-0.156,0.01c-0.031,0-0.063-0.001-0.096-0.003c-2.821-0.205-5.086-1.277-6.73-3.188
			c-3.008-3.494-2.826-8.59-2.783-9.322c-0.013-0.352-0.024-0.702-0.035-1.051c-6.368-1-12.26-3.616-16.998-7.607
			c-6.356-5.355-9.857-12.582-9.857-20.349c0-8.848,3.336-17.22,9.393-23.575c6.178-6.482,14.476-10.051,23.365-10.051
			c9.055,0,17.609,3.443,24.086,9.697c6.572,6.345,10.191,14.843,10.191,23.929c0,8.062-2.799,15.902-7.881,22.075
			c-5.416,6.578-12.837,10.69-21.461,11.895c-0.72,0.102-1.384-0.402-1.484-1.121c-0.1-0.719,0.402-1.383,1.121-1.483
			c7.96-1.11,14.805-4.901,19.794-10.962c4.696-5.703,7.282-12.949,7.282-20.403c0-8.366-3.334-16.192-9.389-22.036
			c-5.984-5.778-13.891-8.961-22.26-8.961c-8.163,0-15.785,3.28-21.461,9.236c-5.59,5.863-8.667,13.592-8.667,21.761
			c0,6.978,3.169,13.49,8.922,18.337c4.25,3.58,9.517,5.963,15.226,6.942c-0.346-13.754,0.121-24.664,0.149-25.311
			c0.017-3.201,2.626-5.8,5.831-5.8c3.215,0,5.832,2.616,5.832,5.832c0,1.15-0.338,2.266-0.975,3.223
			c-0.672,1.015-1.027,2.197-1.027,3.418c0,3.724,1.292,7.703,4.918,7.703c4.344,0,8.996-5.764,8.996-14.344
			c0-4.561-1.804-8.839-5.078-12.048c-3.325-3.258-7.823-5.052-12.666-5.052c-4.041,0-8.121,1.626-11.191,4.462
			c-2.426,2.239-5.316,6.25-5.316,12.638c0,0.498,0.107,1.073,0.23,1.74c0.073,0.392,0.148,0.797,0.215,1.244
			c0.105,0.719-0.391,1.387-1.109,1.492s-1.387-0.391-1.492-1.109c-0.059-0.398-0.129-0.778-0.197-1.146
			c-0.143-0.762-0.276-1.481-0.276-2.222c0-5.727,2.188-10.9,6.161-14.569c3.552-3.279,8.281-5.16,12.977-5.16
			c5.535,0,10.687,2.062,14.506,5.804c3.783,3.707,5.867,8.652,5.867,13.926c0,4.063-1.098,8.203-3.014,11.359
			c-2.199,3.62-5.257,5.613-8.611,5.613c-4.585,0-7.547-4.055-7.547-10.332c0-1.738,0.506-3.422,1.465-4.871
			c0.352-0.527,0.536-1.139,0.536-1.77c0-1.766-1.437-3.203-3.202-3.203s-3.201,1.438-3.201,3.203c0,0.02-0.001,0.04-0.002,0.061
			c-0.006,0.12-0.511,11.367-0.137,25.568c1.09,0.102,2.191,0.154,3.302,0.156c14.229-0.846,24.955-11.924,24.955-25.785
			c0-6.537-2.646-12.631-7.45-17.158c-4.715-4.443-10.918-6.891-17.467-6.891c-5.639,0-11.345,2.271-15.656,6.229
			c-3.429,3.149-7.517,8.797-7.517,17.819c0,2.132,1.095,10.095,6.448,10.095c1.32,0,2.412-0.693,3.245-2.062
			c0.864-1.42,1.173-3.117,1.173-4.23c0-2.068-0.047-3.121-0.074-3.75c-0.023-0.538-0.036-0.824,0.019-1.146
			c0.739-6.775,5.933-11.688,12.362-11.688c3.837,0,7.319,1.535,9.807,4.322c2.12,2.377,3.385,5.539,3.385,8.459
			c0,3.107-0.796,5.697-2.436,7.919c-0.431,0.584-1.254,0.708-1.838,0.277c-0.585-0.431-0.709-1.255-0.277-1.839
			c1.311-1.777,1.922-3.798,1.922-6.357c0-6.623-6.135-10.15-10.562-10.15c-5.075,0-9.178,3.945-9.753,9.383
			c-0.004,0.037-0.01,0.074-0.017,0.111c-0.008,0.062,0.004,0.32,0.016,0.594c0.029,0.65,0.076,1.738,0.076,3.865
			c0,3.705-2.186,8.922-7.047,8.922c-3.205,0-5.764-1.828-7.399-5.287c-1.239-2.62-1.679-5.645-1.679-7.438
			c0-9.977,4.551-16.25,8.368-19.756c4.79-4.398,11.145-6.922,17.435-6.922c7.221,0,14.064,2.701,19.27,7.606
			c5.338,5.029,8.276,11.802,8.276,19.071c0,7.361-2.796,14.311-7.872,19.57c-5.08,5.264-12.041,8.403-19.598,8.842
			c-3.061,0.007-3.592,0.791-3.287,3.875c0,0,0.064,0.385,0.531,1.745c1.023,2.982,3.283,4.587,6.394,4.851
			c11.581-1.418,20.532-6.043,26.604-13.75c5.273-6.692,8.062-15.383,8.062-25.133c0-10.193-4.021-19.752-11.322-26.912
			c-7.254-7.115-16.863-11.033-27.058-11.033c-10.059,0-19.48,3.984-26.529,11.221c-6.988,7.174-10.837,16.664-10.837,26.725
			c0,7.461,2.593,14.844,7.3,20.789c4.674,5.904,11.022,9.879,17.874,11.193c0.714,0.137,1.181,0.826,1.044,1.539
			s-0.826,1.181-1.539,1.043c-7.471-1.432-14.375-5.745-19.441-12.143c-5.072-6.408-7.867-14.371-7.867-22.422
			c0-10.75,4.113-20.892,11.582-28.559c7.549-7.749,17.64-12.017,28.414-12.017c10.887,0,21.15,4.185,28.898,11.785
			c7.81,7.659,12.11,17.884,12.11,28.79C90.529,59.66,87.546,68.914,81.904,76.074z"/>
	</g>
</a>
</svg>
